<?xml version="1.0" encoding="UTF-8" standalone="no"?>
<!-- Created with Inkscape (http://www.inkscape.org/) -->

<svg
   width="1938.667"
   height="486.96301"
   viewBox="0 0 512.93899 128.84229"
   version="1.1"
   id="svg9784"
   inkscape:version="1.1 (c68e22c387, 2021-05-23)"
   sodipodi:docname="globe.svg"
   xmlns:inkscape="http://www.inkscape.org/namespaces/inkscape"
   xmlns:sodipodi="http://sodipodi.sourceforge.net/DTD/sodipodi-0.dtd"
   xmlns="http://www.w3.org/2000/svg"
   xmlns:svg="http://www.w3.org/2000/svg"
   xmlns:rdf="http://www.w3.org/1999/02/22-rdf-syntax-ns#"
   xmlns:cc="http://creativecommons.org/ns#"
   xmlns:dc="http://purl.org/dc/elements/1.1/">
  <title
     id="title10124">globe</title>
  <sodipodi:namedview
     id="namedview9786"
     pagecolor="#ffffff"
     bordercolor="#666666"
     borderopacity="1.0"
     inkscape:pageshadow="2"
     inkscape:pageopacity="0.0"
     inkscape:pagecheckerboard="0"
     inkscape:document-units="px"
     showgrid="false"
     units="px"
     inkscape:zoom="0.23559314"
     inkscape:cx="834.06504"
     inkscape:cy="921.07945"
     inkscape:window-width="1644"
     inkscape:window-height="1040"
     inkscape:window-x="26"
     inkscape:window-y="0"
     inkscape:window-maximized="0"
     inkscape:current-layer="layer1" />
  <defs
     id="defs9781" />
  <g
     inkscape:label="Layer 1"
     inkscape:groupmode="layer"
     id="layer1">
    <g
       id="g9704"
       transform="matrix(1.1357456,0,0,1.1357456,260.0537,-541.23664)">
      <g
         transform="matrix(0.35277777,0,0,-0.35277777,-259.62526,595.84772)"
         id="g1752">
        <path
           d="M 0,360 H 1454 V 0 H 0 Z"
           style="fill:#072266;fill-opacity:1;fill-rule:nonzero;stroke:none"
           id="path1750" />
      </g>
      <g
         transform="matrix(0.35277777,0,0,-0.35277777,-158.62863,597.8389)"
         id="g1756">
        <path
           d="m 153.61523,305.38449 c -0.23748,1.87549 -0.71778,3.71222 -1.42886,5.46414 -0.0907,0.3313 -0.24944,0.64011 -0.46616,0.90674 -0.21673,0.26663 -0.48667,0.48526 -0.79264,0.64194 -0.40899,0.10623 -0.83777,0.11102 -1.24904,0.014 l -6.41275,-0.98016 c -0.53675,-0.0245 -1.05066,-0.22394 -1.46314,-0.56787 -0.83523,-0.87741 -0.0128,-2.29028 -0.0384,-3.50076 -0.0288,-1.36118 -1.23948,-2.46604 -2.55243,-2.83158 -1.34021,-0.2705 -2.72267,-0.25338 -4.05574,0.0502 l -8.96692,1.39193 c 2.64087,0.8422 4.9915,2.40909 6.78357,4.52185 1.18001,1.39637 1.8078,4.00333 0.10242,4.66458 -0.50671,0.13889 -1.03507,0.18128 -1.55747,0.12491 -4.06264,-0.0316 -7.25961,3.35675 -11.06291,4.78382 -2.43422,0.85431 -5.07654,0.91784 -7.54911,0.18158 -2.47256,-0.73627 -4.64875,-2.23468 -6.21734,-4.28095 l 4.77679,-0.23004 c 0.4494,0.0248 0.89503,-0.0939 1.27239,-0.33896 1.04685,-0.85916 -0.25465,-2.50943 -0.10717,-3.8548 0.19161,-1.74789 2.51497,-2.12109 4.26636,-2.29782 1.75139,-0.17675 3.97322,-1.59817 3.13077,-3.14206 -8.80268,-3.02871 -17.76035,5.92044 -27.005029,4.81882 -2.339768,-0.27881 -4.549164,-1.19696 -6.833542,-1.77429 -13.954674,-3.52686 -28.381325,5.88312 -42.636795,3.89026 -3.169159,-0.53968 -6.283901,-1.36023 -9.307301,-2.45197 -1.940193,-0.63635 -3.963935,-1.32403 -5.373666,-2.79986 -1.409729,-1.4758 -1.946261,-3.99967 -0.610758,-5.54282 -3.68099,-0.3028 -7.38657,0.049 -10.944527,1.03918 0.962139,-0.53424 1.762554,-1.31735 2.317227,-2.26715 0.554674,-0.94976 0.843147,-2.03122 0.835138,-3.13076 -5.747426,-0.93619 -11.342669,-2.64038 -16.635223,-5.06671 0.987791,-1.64084 2.141532,-3.17606 3.443095,-4.58161 L 0,283.56894 c 2.458215,-0.61868 3.729174,-3.96698 2.299635,-6.05817 2.548888,1.13266 4.12857,4.06284 6.854184,4.65689 1.785642,0.38919 3.602571,-0.34045 5.296521,-1.02591 1.693951,-0.68545 3.555773,-1.35009 5.309374,-0.83566 1.753601,0.51444 3.047039,2.78574 1.932751,4.23285 7.495338,2.18448 15.241617,3.3934 23.046816,3.59674 0.602165,0.0755 1.212833,-0.0403 1.745445,-0.33087 1.016048,-0.70413 0.748726,-2.22501 0.693996,-3.45908 -0.05473,-1.23404 0.908139,-2.85592 2.012295,-2.29968 -1.299045,-1.12521 -0.188534,-3.2435 1.057762,-4.42673 1.246296,-1.18325 2.748444,-2.81591 1.985432,-4.35507 -0.199139,-0.40173 -0.536903,-0.72314 -0.728508,-1.12851 -0.565575,-1.19647 0.332409,-2.59137 1.391602,-3.38595 1.059188,-0.79456 2.356594,-1.34989 3.092357,-2.45017 0.735764,-1.10028 0.401634,-3.02618 -0.914032,-3.17984 l -3.73957,4.74283 c -1.277649,-1.3234 -2.153565,-2.98145 -2.526154,-4.78189 3.965504,-3.23816 4.561981,-9.82913 1.242092,-13.72513 -1.696552,-1.99095 -4.109173,-3.20074 -6.214866,-4.75369 -2.105691,-1.55295 -4.054135,-3.76432 -4.048836,-6.37883 0.0091,-4.51702 -0.360333,-8.7135 1.334163,-12.90138 3.124672,-7.72205 6.732209,-15.24022 10.801281,-22.51008 1.068554,-1.90899 2.449555,-4.00137 4.614228,-4.33006 -2.735722,6.65264 -5.198418,13.40877 -7.388081,20.2684 1.426182,-0.006 3.074299,-0.11868 3.910355,-1.27284 0.692306,-0.95572 0.54359,-2.25511 0.758709,-3.41507 0.273605,-1.12381 0.729854,-2.19522 1.350578,-3.17154 l 13.063862,-23.24505 c 1.082977,-1.92698 2.32521,-3.9954 4.394981,-4.77576 1.323319,-0.49893 2.854332,-0.40492 4.072342,-1.12325 0.954712,-0.56303 1.597725,-1.56248 2.570999,-2.09285 2.751969,-1.4996 6.578858,1.37644 9.15065,-0.41401 0.735352,-0.51195 1.203163,-1.32526 1.880738,-1.91138 2.375259,-2.0547 6.27169,-0.68016 9.013687,-2.21292 1.767162,-0.98785 2.683012,-2.96346 3.625582,-4.75382 2.36105,-4.48461 6.18134,-8.8782 11.24128,-9.2353 1.58942,-0.11218 3.21296,0.18886 4.76661,-0.16426 1.55365,-0.35314 3.08306,-1.70755 2.83367,-3.27957 -0.42756,-2.69506 0.90548,-5.64611 0.54747,-8.35125 -0.65212,-4.92749 -7.64913,-7.09288 -8.25015,-12.02684 -0.1316,-1.0803 0.0744,-2.19534 -0.18315,-3.25277 -0.31561,-1.29599 -1.28997,-2.35118 -1.63621,-3.63936 -0.65613,-2.44118 1.09477,-4.87067 3.01823,-6.51302 1.92347,-1.64235 4.21783,-3.0585 5.26941,-5.35752 1.1115,-2.43004 0.56553,-5.26345 0.92701,-7.91056 0.78915,-5.77899 5.78611,-10.06312 10.92866,-12.825468 1.56683,-0.841629 3.24916,-1.656448 4.26327,-3.116486 1.32366,-1.905655 1.19179,-4.417892 1.63378,-6.694915 1.08245,-5.576523 5.7821,-10.171311 5.91554,-15.850144 0.0948,-4.0363 -2.15131,-7.698044 -3.49306,-11.506515 -1.25793,-3.648926 -1.71313,-7.52594 -1.33456,-11.366577 0.37857,-3.840638 1.58201,-7.554535 3.52823,-10.888337 1.00372,-1.692962 2.2042,-3.289154 2.91424,-5.124511 1.26706,-3.275177 0.85594,-6.998261 2.0242,-10.309876 1.54456,-4.378265 5.7887,-7.994598 5.38249,-12.618957 1.92682,-3.996918 6.1816,-5.960785 10.46001,-7.150422 l 7.66786,-2.132141 c 1.4682,-0.408233 3.00243,-0.819671 4.49745,-0.524078 1.49501,0.295593 2.92179,1.535645 2.8832,3.057495 -3.76023,0.847077 -7.64102,1.747833 -10.74069,4.036652 -3.09967,2.288849 -5.22303,6.364715 -4.04696,10.031524 0.54534,1.700318 1.70553,3.663758 0.60251,5.068665 -0.63154,0.804413 -1.78639,1.014557 -2.49873,1.748505 -1.11108,1.144744 -0.72936,3.06784 0.0694,4.448242 0.79878,1.380432 1.95331,2.614044 2.2755,4.175659 0.16264,0.873657 0.054,1.776062 -0.31143,2.586243 -0.36542,0.81018 -0.9701,1.48938 -1.73296,1.946502 1.42178,0.536194 2.71485,1.364991 3.79529,2.432556 0.99809,1.13855 1.45912,2.89383 0.67398,4.188111 2.33154,-0.29538 5.08417,-0.440033 6.6147,1.341553 1.22218,1.422668 1.13825,3.549591 0.65532,5.361145 -0.48293,1.811584 -1.29916,3.571136 -1.32459,5.445648 5.37845,-0.254639 10.76874,-0.07208 16.11757,0.545929 -0.77346,2.60205 -2.53112,4.800903 -4.90028,6.130249 2.4225,0.409454 4.62944,3.306442 5.39479,5.63855 0.76535,2.332107 0.57016,4.872375 0.0971,7.280685 -0.18169,0.620041 -0.20659,1.275421 -0.0725,1.90744 0.27279,0.868408 1.12681,1.398316 1.91693,1.851563 l 12.02438,6.898117 c 0.71755,0.359115 1.36794,0.83873 1.92282,1.417923 1.2598,1.478149 1.07319,3.709533 0.42812,5.540756 -0.64505,1.831207 -1.6783,3.553162 -1.92677,5.4785 -0.74317,5.758145 5.42759,9.889615 7.51011,15.309955 0.81728,2.12713 0.98383,4.4393 1.14199,6.71223 0.16986,2.44123 0.18249,5.27681 -1.69399,6.84999 -1.79878,1.50801 -4.60936,1.1716 -6.49158,2.5743 -1.72567,1.28604 -2.32104,3.78372 -4.20623,4.82246 -1.71205,0.94335 -3.85862,0.34338 -5.76273,0.78705 -3.3526,0.78116 -5.4624,4.64085 -8.88635,4.99824 -1.93184,0.20163 -4.11827,-0.74173 -5.70163,0.38213 -1.39517,0.99027 -1.45107,2.98062 -1.71665,4.66956 -0.4654,2.62483 -1.72491,5.04417 -3.60888,6.93212 -1.88396,1.88794 -4.30188,3.15383 -6.9281,3.62716 -1.99185,0.31907 -4.15995,0.1979 -5.85445,1.29132 -1.71584,1.10717 -2.50256,3.18005 -3.85036,4.71333 -2.17221,2.47116 -5.59338,3.34914 -8.79821,4.10173 l -13.03591,3.06117 c -2.31412,0.54343 -5.297,0.83158 -6.53882,-1.19326 -0.36761,-0.77097 -0.62785,-1.58857 -0.7735,-2.43004 -0.46528,-1.52216 -1.40172,-2.85776 -2.67471,-3.81487 -1.27298,-0.95711 -2.81698,-1.48642 -4.41006,-1.51187 -1.09247,1.86147 -2.86247,3.22952 -4.94055,3.81859 -1.32187,0.36798 -2.73677,0.40892 -3.99747,0.9503 -0.68659,0.33475 -1.29757,0.80594 -1.79554,1.38474 -0.49797,0.57879 -0.87246,1.253 -1.10054,1.98138 -0.22808,0.72836 -0.30496,1.49559 -0.22593,2.25467 0.079,0.75908 0.31231,1.49405 0.68555,2.15996 0.75158,1.33665 1.04184,2.88327 0.82598,4.40109 -0.21587,1.51784 -0.92586,2.9225 -2.02038,3.99719 -2.2169,1.98807 -5.4237,2.46842 -8.39626,2.2695 -0.778538,1.69689 0.5232,3.61139 1.92597,4.84455 1.40276,1.23314 3.10615,2.44549 3.41161,4.28697 0.48054,2.89665 -3.2195,5.09671 -6.028837,4.23303 -2.809334,-0.86371 -4.60241,-3.58945 -5.787697,-6.27629 -0.680077,-1.54161 -1.25824,-3.16498 -2.330979,-4.46487 -1.072738,-1.2999 -2.800254,-2.23063 -4.434234,-1.81347 -2.313263,0.59058 -3.206673,3.33588 -3.718636,5.66539 -0.686905,3.12545 -1.377807,6.29427 -1.233879,9.49093 0.143929,3.19665 1.222763,6.47891 3.582542,8.64291 3.845368,3.52638 9.744416,3.18068 14.93405,2.61816 -1.226087,1.37992 -0.923071,3.70551 0.38879,5.00434 0.69252,0.61462 1.52466,1.05124 2.42428,1.272 0.89962,0.22076 1.83957,0.21902 2.73836,-0.005 1.56381,-0.32517 2.97257,-1.16652 3.99948,-2.38866 1.47476,-1.79603 1.89413,-4.22104 3.00883,-6.25967 1.1147,-2.03864 3.6212,-3.77744 5.67277,-2.68372 1.77201,0.94467 2.05327,3.39911 1.61224,5.35654 -0.44102,1.95743 -1.37772,3.86081 -1.21796,5.86084 0.30483,3.81628 4.26517,6.1134 7.75992,7.68509 3.49477,1.57168 7.49648,3.68542 8.05014,7.47366 0.0189,0.74173 0.15903,1.47537 0.41472,2.17197 0.38751,0.61528 0.92618,1.12127 1.56476,1.46988 10.19955,6.73312 20.56874,13.54841 32.22636,17.22751 0.60648,0.19143 0.67768,-0.0213 1.29578,0.12866 0.86505,0.4994 0.29187,1.88098 -0.53752,2.43753 -0.82939,0.55655 -1.93794,0.98334 -2.14838,1.95901 -0.15468,0.7172 0.26837,1.42142 0.37827,2.14682 0.27003,1.78254 -1.86475,3.42832 -3.52257,2.71567 -0.93643,1.2388 0.91649,2.67822 2.41473,3.09027 4.49901,1.23682 9.11731,1.99042 13.77645,2.24799 0.53764,0.0854 1.08848,-0.008 1.56762,-0.26636 0.78254,-0.54144 0.68256,-1.78336 0.12798,-2.55621 -0.5546,-0.77286 -1.41727,-1.25812 -2.10837,-1.91208 -0.75508,-0.73477 -1.29362,-1.66257 -1.55687,-2.68219 -0.26323,-1.01959 -0.24106,-2.09186 0.0641,-3.09973 2.4323,-1.23587 5.0766,-2.50812 7.77048,-2.07273 2.6939,0.4354 5.0849,3.45884 3.81868,5.87351 -1.17915,2.24866 -4.72107,2.7558 -5.33015,5.22027 -0.71314,2.88544 3.37597,5.45169 2.45486,8.27774 -0.40347,1.23792 -1.63852,1.96643 -2.58621,2.86017 -1.11922,1.09577 -1.88054,2.50403 -2.18396,4.03986 -0.30344,1.53583 -0.13481,3.12741 0.48373,4.56576 -1.54362,-0.27127 -3.12988,-0.16882 -4.62568,0.29877 -1.49581,0.46756 -2.85753,1.28662 -3.971,2.38846 -2.05624,2.07288 -3.6967,5.34283 -6.6166,5.25009 -2.67949,-0.0851 -4.98743,-3.20773 -7.49289,-2.25506 -0.6164,0.23437 -1.26628,0.71139 -1.86351,0.43188 -0.19573,-0.12695 -0.36,-0.29666 -0.48042,-0.49634 -0.12043,-0.19964 -0.19384,-0.42407 -0.2147,-0.65622 -0.6367,-3.04077 0.45861,-6.50534 -1.2005,-9.1329 -1.80542,-2.85932 -5.98143,-3.25574 -8.17016,-5.83414 -1.18811,-1.39966 -1.64844,-3.28564 -2.74051,-4.76126 -1.09209,-1.47565 -3.40999,-2.41382 -4.72058,-1.12787 0.64412,1.32269 0.82002,2.82453 0.49894,4.26004 -0.32106,1.43552 -1.1201,2.71979 -2.26652,3.64292 -1.21678,0.79296 -2.52841,1.43026 -3.90412,1.89691 -1.53723,0.64996 -2.99958,1.46408 -4.36157,2.42816 -0.68226,0.4111 -1.23665,1.0036 -1.60116,1.71133 -0.28835,0.8862 -0.2495,1.84623 0.10949,2.7063 0.66458,1.90326 1.83696,3.58905 3.39061,4.87534 1.55364,1.28631 3.42952,2.1243 5.4251,2.42346 1.74499,0.23712 3.77592,0.15359 4.93074,1.48169 0.61104,0.70273 0.93165,1.76517 1.81857,2.0506 0.56732,0.11383 1.1563,0.0414 1.67902,-0.20655 l 6.5132,-2.29003 c 0.72671,-0.3277 1.52659,-0.45987 2.32025,-0.38334 0.39351,0.053 0.75244,0.25263 1.00473,0.5589 0.25229,0.30628 0.37929,0.69657 0.35551,1.09247 -0.2081,1.08045 -1.87245,1.59891 -1.72101,2.68869 0.0848,0.35318 0.27491,0.67233 0.54512,0.91532 2.35055,2.49908 5.22513,4.44808 8.418,5.70755 3.19286,1.25946 6.625,1.79821 10.05069,1.57763 0.82209,-1.34866 -0.47807,-2.94574 -1.55987,-4.09704 -1.08182,-1.15134 -1.95116,-3.20847 -0.64287,-4.0947 0.53613,-0.27335 1.13252,-0.4075 1.73419,-0.39014 1.60356,-0.21679 3.16196,-0.68896 4.61589,-1.39852 2.25069,-0.9784 4.45818,-2.04889 6.62248,-3.21149 -0.19117,1.42544 -0.37364,2.92715 0.16726,4.26001 0.54089,1.33282 2.07814,2.37823 3.42086,1.85919 1.29404,-0.50025 1.95769,-2.21179 3.33635,-2.36859 1.83904,-0.2092 2.56458,2.50467 1.79641,4.1868 -0.76819,1.68212 -2.2889,3.09063 -2.41584,4.93518 -0.0856,1.24438 0.38843,2.78769 -0.60667,3.5412 -0.35411,0.22622 -0.75607,0.36703 -1.17407,0.41125 l -24.84665,4.5672 c -1.47545,0.27121 -3.60721,0.0633 -3.67264,-1.43381 -0.0365,-0.83569 0.71078,-1.66244 0.37979,-2.43081 -0.35327,-0.82007 -1.51379,-0.74509 -2.35907,-1.03513 -1.31154,-0.45007 -1.96966,-2.00571 -1.8437,-3.38522 0.23063,-1.37076 0.76208,-2.67356 1.55626,-3.81494 -1.61614,0.67514 -4.06324,0.79925 -5.67936,1.47436 z"
           style="fill:#3f3d56;fill-opacity:1;fill-rule:nonzero;stroke:none"
           id="path1754" />
      </g>
      <g
         transform="matrix(0.35277777,0,0,-0.35277777,-114.74251,484.82231)"
         id="g1760">
        <path
           d="M 9.38841,6.091086 C 7.821605,6.609025 6.133256,6.633148 4.55226,6.160193 2.971265,5.687238 1.574114,4.740078 0.550232,3.447135 0.141116,2.909058 -0.202472,2.167305 0.14002,1.584661 0.631069,0.749361 1.882256,1.079287 2.804709,1.378086 4.160547,1.861955 5.636293,1.897122 7.013686,1.478384 7.879871,1.181319 8.654792,0.656299 9.524759,0.370461 c 0.42349,-0.176935 0.887197,-0.23538 1.341414,-0.169077 0.454217,0.066303 0.881806,0.25485 1.236901,0.545435 0.597063,0.608267 0.634537,1.553909 0.635592,2.405797 0.04141,0.285047 0.01857,0.575732 -0.06682,0.850845 -0.08539,0.275114 -0.2312,0.527717 -0.426779,0.739366 C 11.896835,4.944301 11.505541,5.059916 11.10362,5.080078 10.203487,5.24651 9.389697,5.721475 8.802601,6.423066"
           style="fill:#3f3d56;fill-opacity:1;fill-rule:nonzero;stroke:none"
           id="path1758" />
      </g>
      <g
         transform="matrix(0.35277777,0,0,-0.35277777,-109.0312,482.94532)"
         id="g1764">
        <path
           d="M 2.158055,3.262111 C 1.807426,3.281185 1.45779,3.209831 1.14275,3.054906 0.827709,2.899981 0.557861,2.666695 0.359168,2.377486 0.160475,2.088276 0.039617,1.752867 0.008206,1.403511 -0.023204,1.054155 0.035884,0.702604 0.179807,0.382657 1.256636,0.089313 2.381654,0.01604 3.4875,0.167225 4.039066,0.252762 4.552948,0.499476 4.964371,0.876272 5.375795,1.253068 5.666348,1.74308 5.799423,2.284561 4.497455,2.047891 3.153917,2.304205 2.030902,3.003502"
           style="fill:#3f3d56;fill-opacity:1;fill-rule:nonzero;stroke:none"
           id="path1762" />
      </g>
      <g
         transform="matrix(0.35277777,0,0,-0.35277777,-100.6579,485.09702)"
         id="g1768">
        <path
           d="M 8.481868,13.522924 C 5.550995,12.90049 2.703977,11.934416 0,10.644786 1.274719,10.155344 2.358319,9.269817 3.091115,8.118695 3.823911,6.967574 4.167144,5.611753 4.070217,4.251049 3.955818,3.728659 3.969053,3.186427 4.108824,2.670233 4.42033,1.915865 5.323013,1.632805 6.116597,1.439178 7.542382,1.005736 9.031207,0.815921 10.520274,0.877726 c 0.744866,0.038931 1.468263,0.262774 2.104719,0.651277 0.636457,0.388502 1.165887,0.929398 1.540387,1.573742 0.215802,0.611551 0.468959,1.209301 0.758029,1.789891 1.902214,2.893854 7.553186,-0.605244 9.595516,2.191697 0.719438,0.985265 0.653639,2.468354 1.591507,3.249082 0.485168,0.340147 1.047374,0.554469 1.636053,0.623681 4.107132,0.815102 8.255796,1.405317 12.427435,1.767993 1.976619,0.17182 4.553013,0.880786 4.569458,2.862606 -7.445122,1.460582 -15.164755,0.423219 -21.958771,-2.950811 -2.447815,-1.224683 -5.685299,-3.800844 -8.043158,-2.177211 -0.882833,0.607918 -0.839122,2.244888 -2.054199,2.928476 -1.242272,0.698887 -2.886681,0.414639 -4.205382,0.134775 z"
           style="fill:#3f3d56;fill-opacity:1;fill-rule:nonzero;stroke:none"
           id="path1766" />
      </g>
      <g
         transform="matrix(0.35277777,0,0,-0.35277777,-89.51177,496.53079)"
         id="g1772">
        <path
           d="M 1.234275,41.385395 4.729141,40.714603 C 4.08583,40.743061 3.443837,40.634159 2.845999,40.395149 2.248162,40.156143 1.708227,39.79253 1.262213,39.328571 0.816198,38.864613 0.47435,38.310974 0.2595,37.704601 0.04465,37.098228 -0.038263,36.453056 0.016272,35.812134 c 3.27279,-1.092118 6.840878,-0.02937 10.288397,-0.174538 3.44752,-0.145176 7.458715,-2.60508 6.870204,-6.001362 -0.177946,-1.026922 -0.771831,-2.053154 -0.463001,-3.048635 0.216459,-0.697737 0.832481,-1.192822 1.180191,-1.835432 0.724569,-1.339073 0.145476,-3.03281 -0.769436,-4.250075 -0.914913,-1.217264 -2.144682,-2.188512 -2.947763,-3.482126 -1.99737,-3.217407 -0.862554,-7.376865 0.327272,-10.97129 0.344033,-1.358136 0.979314,-2.62542 1.861899,-3.714173 1.762773,-1.8722 4.635439,-2.035015 7.208147,-2.072521 1.872507,-0.027306 4.017545,0.065094 5.201694,1.514294 1.54596,1.892006 0.464937,4.84394 1.482767,7.064464 0.924391,2.016686 3.279551,2.881863 5.413355,3.495476 3.909153,1.124149 7.892967,2.079864 11.588661,3.777878 4.589119,2.10849 8.877949,5.394354 13.921921,5.665766 1.415077,0.07614 2.865227,-0.09068 4.228295,0.296602 1.363075,0.387283 2.657897,1.564461 2.554702,2.976272 -0.08817,1.20629 -1.109878,2.092087 -1.908226,3.001446 -0.798347,0.909359 -1.425293,2.307686 -0.691559,3.269804 l 13.22091,2.466719 c -0.937157,2.551185 -1.667206,5.911156 0.486282,7.571754 0.776993,0.599156 1.817284,0.838623 2.478836,1.562966 1.127548,1.234558 0.560585,3.361198 -0.74099,4.411121 -1.301574,1.049919 -3.061462,1.293655 -4.728698,1.431988 C 70.283058,49.249451 64.452682,48.931667 58.64439,48.61364 47.290401,47.991966 35.936413,47.370289 24.582422,46.748619 22.29677,46.623474 19.657839,46.814663 17.561531,46.035744 15.786857,45.376312 14.52503,44.165855 12.495315,43.740574 8.748367,42.955452 4.62491,43.486729 1.234275,41.385395 Z"
           style="fill:#3f3d56;fill-opacity:1;fill-rule:nonzero;stroke:none"
           id="path1770" />
      </g>
      <g
         transform="matrix(0.35277777,0,0,-0.35277777,-67.492338,494.14682)"
         id="g1776">
        <path
           d="M 1.426309,7.033702 C 1.070182,7.089991 0.706003,7.007487 0.409029,6.803241 0.212662,6.587267 0.095854,6.310888 0.077876,6.019689 -0.147746,4.734514 0.121025,3.411642 0.830336,2.315992 1.191665,1.778505 1.690438,1.34744 2.27488,1.067545 2.859322,0.78765 3.508122,0.669143 4.153905,0.724315 5.727553,0.924761 6.887254,2.265817 8.333981,2.920207 10.563742,3.927875 20.03314,5.498743 13.482718,9.033784 11.225302,10.25204 9.766635,9.176606 7.987424,8.374299 5.963095,7.339832 3.694693,6.87634 1.426309,7.033702 Z"
           style="fill:#3f3d56;fill-opacity:1;fill-rule:nonzero;stroke:none"
           id="path1774" />
      </g>
      <g
         transform="matrix(0.35277777,0,0,-0.35277777,-47.455813,485.03023)"
         id="g1780">
        <path
           d="M 2.004016,10.781034 C 1.239122,10.468886 0.599248,9.91251 0.184294,9.198785 -0.00689,8.836374 -0.051283,8.41442 0.060284,8.020222 0.171851,7.626023 0.430859,7.289752 0.783703,7.080975 1.069396,6.977503 1.372222,6.929514 1.675948,6.939592 L 4.786019,6.846774 C 6.107244,6.807345 7.757609,6.526271 8.112643,5.254439 8.376273,4.310064 7.786239,3.09654 8.498177,2.421672 8.803717,2.185327 9.171092,2.042189 9.556144,2.00948 c 1.024493,-0.262883 2.094372,-0.297377 3.133702,-0.101026 2.262889,0.606299 1.073839,1.985902 1.786547,3.21433 1.090481,1.879579 0.901706,0.741779 2.823171,1.819008 1.419012,0.795543 3.252676,2.238675 2.068285,4.266298 -2.059633,3.525987 -14.324563,1.087699 -17.363833,-0.427056 z"
           style="fill:#3f3d56;fill-opacity:1;fill-rule:nonzero;stroke:none"
           id="path1778" />
      </g>
      <g
         transform="matrix(0.35277777,0,0,-0.35277777,-29.995789,483.09507)"
         id="g1784">
        <path
           d="M 13.896109,7.06827 12.090202,6.827538 C 8.017792,6.28469 3.922283,5.736851 0,4.515259 1.697837,3.844711 3.479151,3.408094 5.294871,3.217431 6.294386,3.16849 7.287217,3.027509 8.260791,2.796284 9.993208,2.281124 11.73888,0.95081 13.412601,1.632272 c 1.037753,0.422535 1.37638,1.501883 2.236022,2.07391 0.593589,0.394989 2.844959,1.034301 3.096643,1.432972 2.034698,3.222998 -3.285131,2.137596 -4.849157,1.929116 z"
           style="fill:#3f3d56;fill-opacity:1;fill-rule:nonzero;stroke:none"
           id="path1782" />
      </g>
      <g
         transform="matrix(0.35277777,0,0,-0.35277777,-25.2267,488.79899)"
         id="g1788">
        <path
           d="M 8.307486,15.038054 C 5.895192,13.690681 3.657051,12.053438 1.643022,10.162836 0.79451,9.36608 -0.072186,8.375131 0.004775,7.214403 0.107038,5.671682 1.752232,4.776827 3.177551,4.174034 L 8.950741,1.732452 C 9.651102,2.718496 9.010088,4.079636 8.286262,5.04863 7.562435,6.017623 6.702267,7.138721 7.022063,8.30477 c 0.364946,1.330667 1.989206,1.784115 3.351225,2.013354 2.219177,0.373504 8.205547,0.343547 7.486245,3.916011 -0.847543,4.209446 -7.324396,2.047701 -9.552047,0.803919 z"
           style="fill:#3f3d56;fill-opacity:1;fill-rule:nonzero;stroke:none"
           id="path1786" />
      </g>
      <g
         transform="matrix(0.35277777,0,0,-0.35277777,-22.844458,570.58999)"
         id="g1792">
        <path
           d="M 0.39371,8.670734 C -0.155894,7.081348 -0.208049,5.209061 0.742654,3.821377 1.809447,2.264242 3.944422,1.683783 5.791524,2.078661 c 1.839391,0.48885 3.478909,1.54182 4.687589,3.010559 1.105394,1.230507 2.014755,2.623495 2.69621,4.130146 0.951085,2.347887 1.621886,4.799551 1.998478,7.304272 l 1.792481,9.40093 c 0.400553,2.101046 0.385052,8.542519 -3.480856,6.443821 C 12.429319,31.795063 9.984077,27.26833 8.877303,25.984684 6.882534,23.671139 6.61861,21.426336 5.568492,18.623554 4.253162,15.112898 1.609626,12.187 0.39371,8.670734 Z"
           style="fill:#3f3d56;fill-opacity:1;fill-rule:nonzero;stroke:none"
           id="path1790" />
      </g>
      <g
         transform="matrix(0.35277777,0,0,-0.35277777,47.373152,587.46286)"
         id="g1796">
        <path
           d="M 5.535738,8.391353 C 4.270704,8.884476 3.043014,9.468254 1.862241,10.138184 0.678204,6.886629 0.048709,3.459701 0,6.1e-5 l 8.655964,4.892746 c 1.302129,0.735998 2.777979,1.758683 2.749982,3.25293 0.01174,0.18453 -0.02653,0.368818 -0.11074,0.533479 -0.08421,0.164661 -0.211273,0.3036 -0.367839,0.402241 C 10.735011,9.158575 10.525552,9.183124 10.32055,9.15258 9.037023,9.045731 7.866745,8.414868 6.655939,7.976166 5.445131,7.537463 4.029309,7.305582 2.91838,7.956632"
           style="fill:#3f3d56;fill-opacity:1;fill-rule:nonzero;stroke:none"
           id="path1794" />
      </g>
      <g
         transform="matrix(0.35277777,0,0,-0.35277777,60.488156,589.37809)"
         id="g1800">
        <path
           d="M 14.021364,10.915403 C 13.071336,10.657079 12.143246,10.324381 11.245567,9.920342 9.259168,8.910769 7.907859,6.993193 6.120327,5.663476 4.40977,4.391019 2.350626,3.692371 0.329172,3.013094 -0.265468,2.488047 0.007764,1.430609 0.653244,0.969369 1.347246,0.574999 2.143167,0.396299 2.939363,0.456083 5.039443,0.409777 7.251981,0.38956 9.091452,1.402773 c 1.036468,0.671587 2.006311,1.440534 2.896392,2.296356 2.15071,1.79252 4.733555,2.975205 7.290221,4.118148 0.930547,0.350965 1.790937,0.864846 2.540891,1.517533 1.606566,1.581048 1.719555,4.020186 -0.597004,4.558296 -1.871757,0.434835 -5.418339,-2.401763 -7.200588,-2.977703 z"
           style="fill:#3f3d56;fill-opacity:1;fill-rule:nonzero;stroke:none"
           id="path1798" />
      </g>
      <g
         transform="matrix(0.35277777,0,0,-0.35277777,69.852078,584.14714)"
         id="g1804">
        <path
           d="m 7.653443,9.252161 c 0.104021,1.087915 -0.04075,2.185185 -0.423482,3.209 C 6.84723,13.484976 6.236565,14.408566 5.444153,15.162109 5.420478,12.985466 5.35433,10.666613 4.128776,8.866705 3.255554,7.58426 1.886425,6.717937 0.929732,5.496352 -0.02696,4.274768 -0.451641,2.338438 0.670537,1.266522 1.387816,0.721312 2.261511,0.420732 3.162769,0.4091 5.396567,0.146441 7.982111,2.2e-5 9.548828,1.612058 c 0.855135,0.879871 1.271099,2.183051 2.314054,2.829938 0.388526,0.162963 0.735425,0.410964 1.015207,0.72572 0.430641,0.68382 -0.253593,1.585043 -1.023821,1.831432 C 11.084041,7.245538 10.2353,7.129707 9.461213,7.363714 8.687127,7.597721 7.976898,8.467188 8.374068,9.170923"
           style="fill:#3f3d56;fill-opacity:1;fill-rule:nonzero;stroke:none"
           id="path1802" />
      </g>
      <g
         transform="matrix(0.35277777,0,0,-0.35277777,47.545064,558.25106)"
         id="g1808">
        <path
           d="M 35.027866,15.650414 C 33.855942,15.365701 32.642296,15.294235 31.445,15.43941 29.45636,15.804615 27.90852,17.301685 26.303007,18.529434 22.486425,21.432209 17.84679,23.051508 13.05093,23.154551 8.688248,23.236843 4.284787,22.05596 0,22.879864 0.279942,21.324511 1.61236,20.157948 3.033977,19.464575 4.455594,18.7712 6.02458,18.422272 7.453018,17.743015 c 2.287678,-1.098627 4.102164,-2.984231 5.110718,-5.311033 0.460069,-1.072708 0.749539,-2.240075 1.446447,-3.176728 1.424408,-1.914496 4.124323,-2.334901 6.507113,-2.178336 3.106615,0.20413 6.35128,1.096624 9.241463,-0.059533 2.210985,-0.884454 3.793403,-2.817514 5.639507,-4.320587 1.846104,-1.503072 4.446338,-2.618601 6.566166,-1.534082 -2.201882,0.712086 -4.118302,2.108534 -5.469479,3.985516 -1.351173,1.876979 -2.066341,4.136183 -2.041199,6.447912 2.079113,-0.190978 8.067448,-0.117049 7.744885,3.411801 -0.273312,2.990651 -5.385517,0.965261 -7.170773,0.642469 z"
           style="fill:#3f3d56;fill-opacity:1;fill-rule:nonzero;stroke:none"
           id="path1806" />
      </g>
      <g
         transform="matrix(0.35277777,0,0,-0.35277777,28.402087,583.47001)"
         id="g1812">
        <path
           d="m 62.093117,62.804749 c 0.369156,2.022468 2.38826,3.808441 1.759308,5.765899 -0.434964,1.353699 -2.006249,2.022049 -3.429142,2.055428 -1.422894,0.03338 -2.820717,-0.390007 -4.243435,-0.429878 -0.926052,0.04911 -1.854351,0.03594 -2.778633,-0.03941 -2.824196,-0.46373 -4.564984,-3.420639 -7.226517,-4.472015 -1.618351,-0.639287 -3.436417,-0.517109 -5.119541,-0.95905 C 37.234493,63.722511 34.817028,60.116169 32.14624,57.20853 27.83091,52.531475 22.209066,49.256523 16.008902,47.807888 13.836556,47.305435 11.5013,46.98399 9.774587,45.574673 7.487995,43.708397 6.92514,40.508965 6.416412,37.6035 5.01088,29.579346 2.862858,21.702812 0,14.075211 l 9.07212,-1.157036 c 1.724819,-0.219979 3.512025,-0.43525 5.174097,0.07508 1.207573,0.45504 2.351413,1.063682 3.403224,1.810821 4.040436,2.505764 8.562523,4.136277 13.273651,4.786034 2.375713,0.325802 4.866501,0.385475 7.095947,-0.496616 2.229447,-0.882092 4.142071,-2.882443 4.328915,-5.270485 0.964119,0.29961 1.991623,0.331947 2.972721,0.0936 0.981094,-0.238346 1.878937,-0.738445 2.597622,-1.446873 1.420616,-1.445869 2.350853,-3.300812 2.659431,-5.303116 0.238972,-1.239792 0.478073,-2.725303 1.629792,-3.245407 0.939605,-0.424324 2.017437,0.032677 3.045314,0.114838 3.487915,0.278778 6.382214,-3.78373 9.810482,-3.084168 3.676751,0.750275 4.579438,6.250634 8.166367,7.352425 2.060112,0.632797 4.949799,-0.13665 5.936279,1.777527 0.869515,1.687172 -0.865303,3.634128 -0.686401,5.523312 0.220276,2.326206 2.967254,3.313571 5.084892,4.306121 7.300697,3.421875 10.765106,13.237141 7.227364,20.476178 -2.0961,4.289112 -6.220452,7.665397 -6.98214,12.377254 -0.586029,3.625217 0.844628,7.852608 -1.469269,10.706123 -1.177093,1.451596 -3.170036,2.25285 -3.870468,3.984929 -0.440903,1.090278 -0.263748,2.327316 -0.501015,3.479042 -0.237266,1.151733 -1.243141,2.356437 -2.381729,2.057907 -3.305076,-0.866555 -4.359748,-11.065205 -6.129272,-13.543202 -2.689858,-3.76672 -8.211876,-1.285557 -7.364807,3.355252 z"
           style="fill:#3f3d56;fill-opacity:1;fill-rule:nonzero;stroke:none"
           id="path1810" />
      </g>
      <g
         transform="matrix(0.35277777,0,0,-0.35277777,27.0987,556.54598)"
         id="g1816">
        <path
           d="M 4.697996,6.963718 C 3.568545,7.280062 2.335257,7.59168 1.253066,7.139606 0.170875,6.687531 -0.46114,5.100412 0.407422,4.312886 7.202369,4.577291 14.038943,4.839846 20.776134,3.918089 28.538467,2.856081 36.220512,0.225426 44.016907,0.999356 39.563393,2.311774 35.036381,3.361104 30.459366,4.141882 L 22.826881,5.598284 C 20.779375,6.026659 18.710543,6.34597 16.629087,6.55489 12.274804,6.914104 8.979152,5.76462 4.697996,6.963718 Z"
           style="fill:#3f3d56;fill-opacity:1;fill-rule:nonzero;stroke:none"
           id="path1814" />
      </g>
      <g
         transform="matrix(0.35277777,0,0,-0.35277777,28.8599,551.99328)"
         id="g1820">
        <path
           d="M 6.508125,17.697811 C 5.944026,17.744862 5.245367,17.785395 4.953537,17.30092 4.674719,16.83803 4.993851,16.226456 4.843922,15.707384 4.639091,14.998268 3.709412,14.817135 2.976902,14.913678 2.244393,15.010221 1.452169,15.241403 0.803194,14.888601 0.474063,14.664021 0.226722,14.338906 0.098285,13.96199 -0.030152,13.585074 -0.032786,13.176694 0.090835,12.798175 0.356172,12.046622 0.785319,11.363302 1.347232,10.797592 2.307001,9.5895 3.400571,8.493826 4.607076,7.531452 6.942443,5.809494 10.106352,4.979698 11.577251,2.480034 11.78475,1.99556 12.1037,1.566746 12.508181,1.22847 c 0.70612,-0.446787 1.62702,-0.106886 2.387271,0.24011 l 2.664938,1.216334 c 0.480042,0.172729 0.908616,0.463892 1.245842,0.84638 0.608849,0.825205 0.234879,1.998491 -0.276149,2.887466 -0.51103,0.888974 -1.165192,1.808972 -1.055523,2.828202 0.19553,1.817263 2.534673,2.512367 3.496496,4.067211 0.969482,1.567246 0.33835,3.586611 0.450098,5.425693 0.130764,2.150671 1.483635,4.948187 -0.693035,6.555071 -1.849894,1.36565 -3.618012,0.103798 -4.946165,-1.403908 -2.800807,-3.179433 -4.125145,-6.622699 -9.273829,-6.193218 z"
           style="fill:#3f3d56;fill-opacity:1;fill-rule:nonzero;stroke:none"
           id="path1818" />
      </g>
      <g
         transform="matrix(0.35277777,0,0,-0.35277777,36.688963,542.71388)"
         id="g1824">
        <path
           d="m 0.491929,23.528294 c 0.909835,-1.740136 2.806556,-2.778595 3.798693,-4.473252 1.075391,-1.836855 0.952896,-4.21015 2.119546,-5.99057 1.196943,-1.826668 3.605692,-2.796472 4.276963,-4.874117 0.732855,-2.268272 -0.929942,-5.0252 0.395507,-7.00712 0.24719,-0.323961 0.559073,-0.593096 0.915838,-0.790373 0.356765,-0.197277 0.750649,-0.318384 1.156719,-0.355652 0.406071,-0.037267 0.815455,0.010108 1.202235,0.139145 0.386778,0.129038 0.742511,0.336909 1.044659,0.610453 0.558823,0.607786 0.85789,1.409571 0.833463,2.234436 -0.02443,0.824865 -0.370411,1.607573 -0.964225,2.181297 -0.784768,0.71473 -1.911621,1.023598 -2.566854,1.858437 -0.341239,0.481783 -0.568562,1.034639 -0.664829,1.616926 -0.357176,1.67959 -0.299977,3.420778 0.166693,5.073359 0.175332,0.419412 0.219851,0.881909 0.127735,1.32701 -0.294977,0.856479 -1.455996,0.917258 -2.270834,1.314587 C 8.212525,17.295273 8.257472,19.904251 8.580816,21.935938 8.36554,20.58333 3.5421,22.883862 3.037014,23.650036 2.033638,25.172073 2.579704,28.108107 2.38107,29.790039 0.214878,28.747362 -0.620481,25.655914 0.491929,23.528294 Z"
           style="fill:#3f3d56;fill-opacity:1;fill-rule:nonzero;stroke:none"
           id="path1822" />
      </g>
      <g
         transform="matrix(0.35277777,0,0,-0.35277777,18.173083,553.0441)"
         id="g1828">
        <path
           d="m 4.384915,26.036776 c -0.890262,0.995525 -2.231194,2.036975 -3.424742,1.436582 -0.910605,-0.458052 -1.161103,-1.716583 -0.804201,-2.67057 0.434787,-0.926647 1.104231,-1.723854 1.942096,-2.312767 2.487304,-2.049113 5.165703,-3.89851 7.335628,-6.280485 3.883216,-4.26274 5.940309,-10.014628 10.163485,-13.941603 0.848887,-0.910437 1.972924,-1.518076 3.200236,-1.730045 1.230388,-0.114336 2.612045,0.672376 2.753475,1.898607 0.116495,1.010099 -0.588438,1.914179 -1.277348,2.662702 -1.640501,1.782465 -3.43646,3.423157 -4.985302,5.285641 -0.715313,0.71541 -1.164838,1.653207 -1.27428,2.6584 -0.0079,1.002835 0.907638,2.05246 1.880323,1.804114 -1.182976,0.302038 -2.060331,2.270736 -3.796577,2.640803 -1.451004,0.309258 -1.802009,-0.588066 -3.528847,0.151741 -3.293517,1.411024 -5.877499,5.817711 -8.183946,8.39688 z"
           style="fill:#3f3d56;fill-opacity:1;fill-rule:nonzero;stroke:none"
           id="path1826" />
      </g>
      <g
         transform="matrix(0.35277777,0,0,-0.35277777,40.866808,522.4371)"
         id="g1832">
        <path
           d="m 17.444635,36.211502 c -0.944759,0.280483 -1.873623,0.611923 -2.782464,0.992851 -2.445388,0.733227 -5.680889,-1.062225 -5.354932,-3.591713 0.216571,-1.680643 1.782423,-2.813741 2.647162,-4.271547 1.282411,-2.161879 0.940545,-4.903891 0.266644,-7.324957 C 12.055597,21.266502 11.740926,20.557747 11.295782,19.932011 10.67343,19.271383 9.929423,18.736761 9.1045,18.357428 5.802122,16.507626 2.88985,14.036201 0.528644,11.079775 0.271933,10.806736 0.09312,10.470011 0.010759,10.104582 -0.105865,9.25054 0.753527,8.628405 1.239412,7.916096 2.318728,6.333794 1.538615,4.204632 1.645316,2.292908 1.628916,2.022598 1.681915,1.752583 1.799281,1.508469 1.916646,1.264351 2.094503,1.054218 2.315963,0.898014 2.966495,0.567928 3.737335,1.128624 4.089934,1.766739 5.260063,3.88435 4.378626,7.283466 6.573742,8.30448 c 0.415231,0.193138 0.918622,0.274562 1.195633,0.638921 0.439483,0.578009 0.015444,1.433831 0.238164,2.124709 0.334392,1.037303 1.754719,1.083875 2.844702,1.037866 1.877607,-0.07843 3.754481,0.171175 5.546147,0.737564 0.702833,0.166935 1.341188,0.536185 1.835977,1.061995 0.656195,0.818042 0.598057,1.981188 0.466938,3.021221 -0.656749,5.185038 -2.30097,10.196596 -4.843915,14.764156 1.928244,-0.246046 4.026094,-0.459139 5.690023,0.544661 0.931732,0.562095 2.049017,2.243023 1.586908,3.387123 -0.730787,1.809261 -2.050916,0.286358 -3.689684,0.588806 z"
           style="fill:#3f3d56;fill-opacity:1;fill-rule:nonzero;stroke:none"
           id="path1830" />
      </g>
      <g
         transform="matrix(0.35277777,0,0,-0.35277777,-68.139713,578.68335)"
         id="g1836">
        <path
           d="m 79.237831,167.13295 c 0.230774,-1.23628 0.457634,-2.53803 0.05203,-3.72856 -0.405594,-1.19052 -1.681542,-2.18527 -2.886376,-1.8205 -0.935051,0.28311 -1.475174,1.22226 -2.139137,1.93827 -3.692391,3.98179 -12.02301,1.67646 -14.304012,6.60261 -0.930928,2.0105 -0.298291,4.41916 -0.933258,6.54149 -0.400559,1.22661 -1.197632,2.28558 -2.26606,3.0106 -1.068425,0.72503 -2.347645,1.07503 -3.636803,0.99505 -1.175827,-0.16964 -2.320347,-0.51092 -3.396858,-1.01288 -7.21183,-2.8851 -14.783089,-4.77671 -22.505484,-5.62273 -1.4676,-0.0893 -2.919298,-0.35316 -4.324333,-0.78595 -3.170879,-1.1483 -5.337452,-4.08475 -6.879305,-7.08122 -1.541855,-2.99648 -2.680129,-6.24049 -4.747291,-8.90267 -2.172508,-2.79786 -5.216836,-4.75708 -8.056609,-6.87625 -1.093951,-0.70425 -2.004844,-1.65791 -2.657761,-2.78251 -0.615644,-1.26252 -0.580923,-2.73102 -0.533135,-4.13456 l 0.580395,-17.04646 c 0.074654,-2.19259 0.168386,-4.46356 1.150801,-6.42572 1.226775,-2.45021 3.650231,-4.05498 5.331468,-6.21946 1.71573,-2.22436 2.609479,-4.97251 2.530007,-7.77943 -0.035786,-1.12847 -0.148046,-2.46324 0.7318,-3.17197 0.535231,-0.34664 1.16152,-0.52657 1.799331,-0.51691 l 23.084308,-1.88726 c 4.060696,-0.33197 8.560867,-0.877796 11.212021,-3.968113 1.251221,-1.458488 2.256325,-3.555878 4.172813,-3.712372 0.822052,-0.06712 1.621941,0.269966 2.444157,0.335015 2.07441,0.164108 3.89674,-1.408623 5.046822,-3.140915 1.740657,-2.640313 2.530796,-5.793373 2.240642,-8.94146 -0.188576,-1.976074 -0.801922,-3.897148 -0.93415,-5.8778 -0.503155,-7.536354 5.892654,-14.08403 6.016624,-21.636116 0.07293,-4.442207 -2.038185,-8.59272 -4.096409,-12.531197 3.32188,-5.026825 0.601738,-11.720626 1.924255,-17.597244 1.254704,-5.575287 5.908444,-9.939972 7.068074,-15.535751 0.530876,-2.561753 0.561577,-5.714249 2.823021,-7.033676 0.992302,-0.483124 2.092361,-0.70311 3.194389,-0.638855 6.64724,-0.078659 13.218674,1.415725 19.176727,4.360962 2.796326,1.386108 5.694345,3.455368 6.182705,6.535232 0.39384,2.483704 -0.86709,5.261887 0.41615,7.425324 1.51239,2.549835 5.38683,2.347686 7.61208,4.308105 3.61005,3.180359 0.795,9.245804 2.25767,13.826599 1.31478,4.117584 5.84062,6.305084 8.08406,10.000672 0.88288,1.58934 1.51645,3.304535 1.87859,5.0858 1.02774,4.257271 1.6675,8.598785 1.91137,12.971306 0.0598,2.656662 0.25587,5.308487 0.58749,7.945083 2.41879,15.010613 17.27475,25.061981 22.09804,39.482181 0.46062,1.37713 0.67694,3.21147 -0.54956,3.99072 -0.72748,0.3467 -1.5522,0.43291 -2.33577,0.2442 l -10.64133,-1.34011 c -1.32174,-0.16646 -2.72276,-0.32204 -3.9366,0.22635 -1.21382,0.54839 -2.08377,2.08225 -1.43992,3.24722 1.80737,3.27021 -1.91043,7.40269 -3.56211,10.75403 -4.44825,9.02405 -9.74534,17.60519 -15.8198,25.62759 -0.38885,0.41269 -0.63236,0.9408 -0.69358,1.50422 l 3.02013,-0.10044 c -1.01949,3.65419 -2.70192,7.65296 -6.25596,8.98967 -2.00268,0.75324 -4.2205,0.49278 -6.357272,0.37616 -6.120247,-0.33398 -12.681656,0.58905 -18.73909,1.52463 z"
           style="fill:#3f3d56;fill-opacity:1;fill-rule:nonzero;stroke:none"
           id="path1834" />
      </g>
      <g
         transform="matrix(0.35277777,0,0,-0.35277777,-61.223254,546.42835)"
         id="g1840">
        <path
           d="m 78.376137,158.04887 c 1.601524,-1.69886 3.396179,-3.50007 5.713402,-3.79618 4.092811,-0.52306 7.035499,3.70463 8.909057,7.37684 0.06936,-0.93619 0.501625,-1.80841 1.204834,-2.43117 0.703209,-0.62274 1.621872,-0.94688 2.560639,-0.90348 1.010269,0.1698 1.97451,0.54634 2.832176,1.10603 8.109125,4.42664 17.191975,6.77206 26.432835,6.82559 -0.0888,0.69923 0.0849,1.40654 0.48746,1.98541 0.40256,0.57889 1.00549,0.98833 1.69246,1.14933 1.87883,0.37207 3.57129,-1.25054 4.47763,-2.93608 0.90634,-1.68554 1.47147,-3.63921 2.91145,-4.90087 1.43997,-1.26164 4.22788,-1.20669 4.79666,0.6203 0.54606,1.754 -1.28324,3.24982 -2.80304,4.28391 -1.51979,1.0341 -3.12168,2.94806 -2.09823,4.47412 7.76433,1.71681 15.5768,3.44011 23.52173,3.78135 1.35264,-0.047 2.70048,0.1849 3.95941,0.68131 1.21162,0.59393 2.17467,1.94211 1.84886,3.2504 -1.73378,-0.40711 -3.54968,-0.28922 -5.21611,0.33865 -1.66644,0.62787 -3.10793,1.73727 -4.14066,3.18674 11.02414,0.90872 22.74952,1.68329 32.51943,-3.49831 1.17239,-2.51408 -4.80293,-4.60577 -3.20421,-6.87334 0.50989,-0.7232 1.5316,-0.80801 2.41696,-0.82443 6.78923,-0.12591 13.61766,-0.24937 20.33026,0.77449 2.45307,0.37418 4.93082,0.90238 7.39367,0.59896 4.10217,-0.50536 7.61074,-3.23945 11.64651,-4.13085 1.64261,-0.36282 3.48439,-0.37512 4.86903,0.57922 1.38466,0.95434 1.97983,3.12739 0.84514,4.368 3.79984,3.72006 10.10637,2.79807 15.11928,1.01709 5.01289,-1.78099 9.7619,-4.65312 15.06757,-5.05011 3.80465,-0.28467 7.66214,0.7376 11.4216,0.0878 2.36245,-0.40831 4.56115,-1.45815 6.87011,-2.10314 4.36701,-1.21988 8.98658,-0.96237 13.52076,-1.02109 11.56888,-0.15568 23.01138,-2.42689 33.76095,-6.70114 1.39838,-0.45479 2.67963,-1.21092 3.75315,-2.21496 1.00021,-1.06993 1.51028,-2.73253 0.83804,-4.03334 l -11.10788,1.62123 c 1.04657,-2.058 3.75409,-2.40871 5.95291,-3.11869 2.19879,-0.70996 4.47864,-3.13548 3.1572,-5.02914 -2.38242,0.75774 -4.54132,-1.6216 -5.74482,-3.81078 -1.20346,-2.18916 -2.67004,-4.81095 -5.16674,-4.94432 -2.23572,-0.11943 -4.93967,1.78218 -6.39698,0.0843 2.01331,-2.53704 3.73734,-5.29026 5.1402,-8.20874 1.43973,-2.99614 2.46518,-6.77137 0.51923,-9.46705 -0.30616,-0.48123 -0.77051,-0.84093 -1.31333,-1.01731 -1.58923,-0.40188 -2.62182,1.54018 -3.76159,2.71727 -1.43616,1.48332 -3.6081,1.90345 -5.55301,2.5991 -1.94492,0.69566 -3.99372,2.06414 -4.14588,4.12209 -0.0947,1.28042 0.58203,2.47066 1.08054,3.65407 0.83786,1.99468 1.20428,4.1554 1.07086,6.31444 -0.10913,1.73695 -0.59668,3.54378 -1.84549,4.75739 -1.24881,1.21362 -3.40488,1.59861 -4.74554,0.48707 -0.62555,-0.51864 -1.12686,-1.34827 -1.93921,-1.37929 -1.43537,-0.0549 -2.53745,2.44486 -3.69226,1.59157 0.1355,-0.90919 -0.0532,-1.83703 -0.53317,-2.62134 -3.44605,-2.99374 -8.73999,-1.72721 -13.18259,-2.78476 -2.11255,-0.60392 -4.13513,-1.48625 -6.01441,-2.62368 -0.703,-0.30027 -1.30117,-0.80185 -1.71908,-1.44141 -0.55457,-1.07648 0.0568,-2.45514 1.03433,-3.17088 1.03659,-0.63506 2.20142,-1.03223 3.4104,-1.1628 5.41608,-1.02463 10.91113,-2.61078 15.18713,-6.08574 4.27598,-3.47496 7.08008,-9.21925 5.72696,-14.55707 l -10.68075,10.19448 c 0.40567,-4.28044 0.63592,-8.57268 0.69067,-12.8767 0.0691,-0.84038 -0.0465,-1.68568 -0.33856,-2.4768 -0.76144,-1.67993 -2.82516,-2.24525 -4.63354,-2.6161 -0.503,-0.0954 -0.98008,-0.29613 -1.39991,-0.58884 -0.41983,-0.29271 -0.77292,-0.67083 -1.03607,-1.10953 -0.26315,-0.438706 -0.43039,-0.928071 -0.49075,-1.435921 -0.0604,-0.507859 -0.0125,-1.022713 0.14047,-1.510773 0.64252,-2.091973 2.24457,-3.722984 3.71149,-5.348152 1.46689,-1.625176 2.91043,-3.472267 3.10244,-5.652054 0.19205,-2.179787 -1.45431,-4.636742 -3.63967,-4.485184 -1.65665,0.114899 -2.88575,1.596321 -3.59238,3.097481 -0.7066,1.50116 -1.12708,3.173416 -2.18878,4.448929 -3.21356,3.860687 -10.43164,2.206611 -13.31052,6.322403 -0.73379,-0.83149 -1.2427,-1.836548 -1.47833,-2.919731 -0.23563,-1.083184 -0.19019,-2.208535 0.13202,-3.269242 1.33926,0.837494 3.17276,0.05934 4.17901,-1.157562 1.00623,-1.216896 1.48093,-2.777039 2.27118,-4.143814 1.06632,-1.844315 2.76334,-3.479324 2.91217,-5.603951 -0.0395,-0.80339 -0.0259,-1.608497 0.0406,-2.41011 0.26441,-1.287331 1.35367,-2.21167 2.10892,-3.287689 1.75732,-2.503739 1.6705,-5.943283 0.53781,-8.784066 -1.13269,-2.840789 -3.1676,-5.214546 -5.1832,-7.515953 -3.52047,-4.019722 -7.11285,-8.015861 -11.28653,-11.354042 -1.19091,-0.95253 -2.46188,-1.889145 -3.20361,-3.22084 -0.74173,-1.331711 -0.77975,-3.200958 0.36005,-4.213959 -0.81556,-0.0408 -2.27819,-0.441482 -3.09374,-0.482284 -0.28673,3.268051 -0.34906,6.551879 -0.18652,9.82843 -3.21845,1.54367 -6.68376,-2.590348 -6.26845,-6.132447 0.41531,-3.542099 2.98007,-6.384567 4.80609,-9.449111 1.33534,-2.241013 2.32773,-4.854096 1.88191,-7.423737 -0.4458,-2.569641 -2.74212,-4.940155 -5.34306,-4.713516 -4.1371,0.360473 -5.8676,6.293152 -9.96439,6.972122 -0.36132,0.08473 -0.74058,0.04713 -1.07818,-0.106918 -0.60814,-0.33339 -0.71384,-1.146225 -0.74799,-1.838318 -0.1676,-3.396866 -0.31273,-6.928757 1.01476,-10.060578 1.942,-4.58168 6.95895,-8.429733 5.90654,-13.292831 -5.66931,2.632416 -8.61695,8.983169 -9.95528,15.083404 -1.33832,6.100235 -1.5614,12.504319 -3.96045,18.27121 -1.82167,-2.332306 -5.65062,-0.404251 -7.31505,2.042526 -1.57795,2.319672 -2.54948,5.003037 -4.08041,7.353928 -1.53094,2.350906 -3.87619,4.455978 -6.68083,4.585251 -2.94054,0.135559 -5.4908,-1.880142 -7.73354,-3.784683 -1.84419,-1.566101 -3.73764,-3.193833 -4.81563,-5.358719 -1.56871,-3.150284 -1.15834,-6.864151 -1.23393,-10.381821 -0.0817,-3.802933 -0.88858,-7.815323 -3.48335,-10.599365 -2.59477,-2.784027 -7.38417,-3.753739 -10.2462,-1.244629 -1.49419,1.309936 -2.21765,3.26709 -2.86206,5.145706 -3.10622,9.055679 -5.69316,18.280853 -7.74826,27.630661 -0.48091,-2.134003 -2.35686,-4.884521 -4.14896,-3.627472 -0.40211,0.337921 -0.7279,0.757218 -0.95584,1.230179 -3.34285,5.65947 -9.53346,9.054108 -15.78828,11.089493 -6.25483,2.035393 -12.83571,2.98481 -19.02117,5.221748 -3.46629,1.254059 -6.77704,2.901398 -9.86723,4.909661 -0.78773,-1.156075 -1.24768,-2.503472 -1.33117,-3.89943 -0.0835,-1.395958 0.2126,-2.788475 0.85693,-4.030006 1.37208,-2.426789 4.47697,-3.83091 7.13478,-2.982659 1.37346,0.438355 2.53332,1.390778 3.89611,1.861168 1.3628,0.470398 3.19195,0.239403 3.78786,-1.072128 0.57041,-1.255356 -0.29176,-2.773994 0.13593,-4.084724 0.65139,-1.996338 3.6656,-2.150132 4.7196,-3.966782 0.78423,-1.351624 0.13896,-3.146515 -0.98074,-4.237183 -1.11972,-1.090667 -2.61368,-1.688858 -3.98052,-2.448089 -4.43496,-2.463455 -7.58876,-6.668762 -11.46466,-9.940567 -3.87589,-3.271805 -9.3443,-5.660538 -13.96348,-3.561844 1.10108,5.569275 -5.54036,9.658096 -6.76216,15.202194 -0.40216,1.824799 -0.19368,3.763214 -0.76781,5.541504 -0.83125,2.574692 -3.11804,4.344948 -4.994011,6.296097 -2.275376,2.392242 -4.048027,5.2155 -5.213356,8.303177 -1.165329,3.087684 -1.699715,6.37722 -1.571663,9.674553 0.101379,2.291298 0.522773,4.619918 1.98e-4,6.853271 -0.522575,2.233345 -2.373665,4.394974 -4.667496,4.293755 -5.239067,-0.231148 -11.839172,-0.620407 -14.587883,3.840767 -0.981025,1.592208 -1.407943,3.924171 0.01044,5.144027 1.000573,0.860535 2.477547,0.77948 3.791542,0.65036 l 11.804375,-1.159942 c 2.760872,-0.271294 5.745316,-0.495186 8.114479,0.946571 2.369164,1.441765 3.395745,5.26881 1.201996,6.96504 -1.602898,1.2394 -4.474716,1.17219 -4.940659,3.14276 -0.388053,1.64117 1.430504,3.50327 0.448319,4.87481 -0.704254,0.98343 -2.287575,0.71061 -3.247002,-0.0266 -0.959434,-0.73723 -1.655555,-1.81538 -2.729316,-2.37357 -1.883599,-0.97921 -4.134247,-0.0473 -6.160782,0.58608 -2.026528,0.63337 -4.743286,0.68717 -5.726235,-1.19297 -1.099296,-2.10269 0.975044,-4.85795 -0.115936,-6.96494 -1.442406,-2.785706 -6.32711,-1.19989 -8.352837,-3.596039 -2.324508,-2.749558 1.581757,-6.849541 0.797837,-10.362137 -1.000817,-0.495117 -2.113076,-0.722473 -3.228142,-0.659889 -1.115074,0.06258 -2.194824,0.412956 -3.13382,1.016937 -0.923557,0.62748 -1.659599,1.493263 -2.129825,2.505287 -0.470227,1.012017 -0.657044,2.132416 -0.540623,3.24205 0.194042,1.58014 1.018749,3.193123 0.466164,4.686348 -0.446778,1.207299 -1.660313,1.926026 -2.788136,2.548603 l -11.471176,6.33191 c -1.065018,-1.9735 0.281399,-4.4201 1.965305,-5.90239 1.683907,-1.482288 3.793068,-2.598698 4.899258,-4.549473 0.699753,-1.351562 0.856613,-2.918968 0.438538,-4.382148 -0.41808,-1.463181 -1.379544,-2.71177 -2.688065,-3.490769 -0.163979,-0.11306 -0.350552,-0.1893 -0.546833,-0.223503 -0.196282,-0.0342 -0.397637,-0.02554 -0.590252,0.02539 -0.183018,0.107422 -0.342594,0.250442 -0.469269,0.420593 -0.126671,0.170151 -0.217838,0.363968 -0.268158,0.569969 -2.023987,5.173805 -5.062786,10.274948 -9.921085,12.977661 -4.858299,2.70271 -11.839197,2.14704 -15.025061,-2.405823 -0.756712,-1.08139 -1.264589,-2.314025 -1.923786,-3.457336 -3.50222,-6.074249 -11.010387,-8.950638 -18.025207,-8.762749 -0.686232,-0.03791 -1.368882,0.122322 -1.966392,0.461563 -1.133698,0.782128 -1.082638,2.441788 -0.909085,3.807122 l 0.73634,5.794174 c 0.147864,1.163513 0.36212,2.44957 1.284025,3.175879 1.299534,1.02381 3.174199,0.37771 4.829142,0.40151 1.253808,0.0586 2.45925,0.50094 3.452923,1.26698 0.993671,0.76603 1.727498,1.81872 2.102042,3.0154 0.334325,1.20847 0.332199,2.48516 -0.0062,3.6925 -0.338369,1.20734 -1.000142,2.29955 -1.914009,3.15897 -0.758519,0.71165 -1.776621,1.6056 -1.375986,2.56495 0.159863,0.26538 0.375986,0.49254 0.633166,0.66553 0.257179,0.173 0.549181,0.28759 0.85546,0.33577 2.97271,0.86232 6.113765,1.08835 9.036914,2.10582 2.923147,1.01746 5.757975,3.09915 6.450235,6.11295 0.212149,0.92359 0.308737,2.04242 1.139258,2.50032 0.416725,0.17576 0.864235,0.26709 1.31658,0.2687 1.584775,0.22522 3.027774,1.03488 4.044843,2.2696 1.017067,1.23474 1.534538,2.80507 1.450562,4.40184 1.400913,0.97782 3.363624,0.25853 4.718906,-0.78148 1.355278,-1.04 2.551788,-2.41404 4.200863,-2.86236 3.073193,-0.83551 6.043098,1.88251 9.22805,1.89509 1.339367,0.005 2.725888,-0.46775 3.985943,-0.0142 1.277382,0.45983 2.040207,1.73 3.020592,2.66838 0.980388,0.93839 2.700607,1.51073 3.605881,0.49985 l -0.770874,5.70381 c 1.552486,-0.39177 3.170898,-0.44721 4.746612,-0.16264 1.575714,0.28456 3.07225,0.90256 4.38913,1.81253 l -9.963108,3.36267 c -0.346909,0.0865 -0.666985,0.25745 -0.931668,0.49758 -0.724342,0.77912 -0.0049,1.99324 0.584118,2.87889 1.409058,2.11871 1.645615,5.60875 -0.671539,6.66356 -1.581619,0.71998 -3.397087,-0.14426 -4.915165,-0.98978 l -7.271786,-4.05017 c -0.231087,-1.38072 1.459225,-2.16322 2.506668,-3.09326 0.633725,-0.5627 1.082215,-1.3037 1.286625,-2.12567 0.204411,-0.822 0.155152,-1.68651 -0.141315,-2.48003 -0.296467,-0.79349 -0.826271,-1.47885 -1.519825,-1.96608 -0.693554,-0.48723 -1.51841,-0.75353 -2.366242,-0.7639 0.478859,-0.62187 0.811562,-1.34335 0.973458,-2.11107 0.161892,-0.7677 0.148845,-1.56197 -0.03818,-2.32394 l -4.892662,-0.35152 c -0.549106,-0.11035 -1.119644,8.8e-4 -1.58691,0.3094 -0.523285,0.46424 -0.45232,1.27774 -0.573605,1.96626 -0.292728,1.66182 -1.921737,2.82654 -3.584266,3.1252 -1.662529,0.29865 -3.363335,-0.0842 -5.009609,-0.46214 -0.69904,-0.25128 -1.466683,-0.23358 -2.153376,0.0497 -0.393763,0.25551 -0.692978,0.63275 -0.851931,1.0741 -0.721746,1.74808 -0.04713,3.80276 1.112057,5.29768 1.159184,1.49491 2.746059,2.58774 4.171219,3.83226 3.408127,2.98705 5.912128,6.86658 7.229141,11.20035 2.693424,1.12726 5.481854,2.65887 8.175244,3.78616 4.152504,2.10009 8.809188,3.00133 13.446414,2.60239 l 9.12146,-0.17404 c 2.70057,-0.0515 5.47419,-0.11754 7.971344,-1.14597 2.497155,-1.02841 4.691353,-3.25274 4.863755,-5.94534 0.052,-0.30484 0.02563,-0.61784 -0.07667,-0.9097 -0.10231,-0.29184 -0.277176,-0.55296 -0.508186,-0.7588 -0.352654,-0.19225 -0.752106,-0.28218 -1.153229,-0.25965 -2.518601,-0.0884 -3.592453,-0.71527 -6.111,-0.80365 z"
           style="fill:#3f3d56;fill-opacity:1;fill-rule:nonzero;stroke:none"
           id="path1838" />
      </g>
      <g
         transform="matrix(0.35277777,0,0,-0.35277777,-61.907492,503.57033)"
         id="g1844">
        <path
           d="M 7.611831,8.006203 C 7.968176,8.343149 8.22466,8.771707 8.353062,9.244764 8.481462,9.717823 8.476829,10.217083 8.339675,10.687683 7.472517,11.021946 6.529134,11.107763 5.61579,10.935488 4.702447,10.763213 3.855381,10.339678 3.169959,9.712566 2.629584,9.166588 2.163916,8.551609 1.785008,7.883628 0.586412,5.930286 -0.473759,3.597059 0.220869,1.413577 0.277482,1.175459 0.381147,0.951042 0.525754,0.753474 0.670362,0.555906 0.853004,0.389168 1.062984,0.263057 1.374299,0.138242 1.709942,0.085725 2.044553,0.109475 3.36496,0.111189 4.684076,0.192293 5.994729,0.352338 6.799617,0.450641 7.734457,0.677692 8.045519,1.425709 8.454412,2.408984 7.464751,3.521764 7.753263,4.546754 7.943075,5.005114 8.230709,5.416587 8.596115,5.752467 8.777388,5.921588 8.916705,6.130589 9.002991,6.362882 9.089276,6.595175 9.120169,6.844359 9.093205,7.090659 8.976771,7.571596 8.239547,7.84445 7.974162,7.426602"
           style="fill:#3f3d56;fill-opacity:1;fill-rule:nonzero;stroke:none"
           id="path1842" />
      </g>
      <g
         transform="matrix(0.35277777,0,0,-0.35277777,-58.558473,503.91609)"
         id="g1848">
        <path
           d="M 4.965418,17.853319 C 3.792424,18.122353 2.583311,18.198189 1.385839,18.07785 1.121001,18.08573 0.85849,18.026154 0.623073,17.904715 0.394971,17.736681 0.229577,17.497404 0.153068,17.224804 -0.099835,16.413939 -0.037685,15.537665 0.327171,14.770531 0.692028,14.003395 1.332789,13.401692 2.12183,13.085291 2.551882,12.986528 2.963846,12.821178 3.342728,12.595223 4.355138,11.810591 3.709743,10.206787 3.901396,8.941204 4.116602,7.520065 5.493706,6.327177 5.24122,4.912172 5.042307,3.79739 3.850352,2.91468 4.042246,1.798647 4.243245,0.629772 5.728154,0.27854 6.911753,0.184938 7.597707,0.064953 8.303741,0.145769 8.944733,0.417665 c 0.64248,0.438836 1.099423,1.099873 1.282632,1.855488 0.484564,1.440739 0.688189,2.960902 0.599836,4.478209 -0.0052,0.6901 -0.178712,1.368539 -0.505509,1.976571 -0.356421,0.481694 -0.751516,0.933589 -1.18136,1.351234 -2.267667,2.634858 0.120039,6.565082 -4.174914,7.774152 z"
           style="fill:#3f3d56;fill-opacity:1;fill-rule:nonzero;stroke:none"
           id="path1846" />
      </g>
      <g
         id="g1854"
         transform="matrix(0.35277777,0,0,-0.35277777,-257.86138,1035.0561)">
        <g
           transform="translate(374.09228,1315.2115)"
           id="g1852">
          <path
             d="m 245.56767,82.546616 0.10689,-0.994278 0.0698,0.0075 0.068,0.01717 -0.24469,0.969605 z M 68.737953,28.036041 l -0.952324,-0.305069 0.757569,-2.364807 1.092727,2.229828 z M 494.02139,1.829086 c 0.49741,0.867508 0.49665,0.867966 0.49518,0.86879 -10e-4,7.78e-4 -0.003,0.00197 -0.006,0.00353 -0.005,0.00311 -0.0135,0.00774 -0.0242,0.013855 -0.0214,0.012222 -0.0532,0.030426 -0.0954,0.054504 -0.0844,0.048142 -0.21015,0.119782 -0.37622,0.214066 -0.33219,0.188583 -0.82569,0.467773 -1.47223,0.830932 -1.29303,0.726303 -3.19815,1.788483 -5.64878,3.133271 -4.90121,2.689529 -11.98477,6.509719 -20.7182,11.03453 C 448.71,27.031545 424.6399,38.90183 398.22709,50.18337 c -26.40854,11.279724 -55.18268,21.98114 -82.05182,28.681793 -26.8367,6.692558 -51.91138,9.430817 -70.85208,4.651062 l 0.48936,-1.939209 c 18.44539,4.654762 43.12047,2.020592 69.87877,-4.65242 26.7258,-6.664909 55.39185,-17.322189 81.75018,-28.580475 26.3541,-11.25647 50.37763,-23.103515 67.814,-32.137359 8.71753,-4.516602 15.78699,-8.329194 20.67609,-11.012085 2.44449,-1.341431 4.34384,-2.400391 5.63147,-3.123658 0.64379,-0.361633 1.13467,-0.639343 1.46432,-0.826461 0.1648,-0.093567 0.28931,-0.164475 0.37244,-0.211914 0.0416,-0.023728 0.0728,-0.041581 0.0936,-0.053452 0.0104,-0.005936 0.0182,-0.010391 0.0233,-0.013321 0.003,-0.001465 0.004,-0.002548 0.006,-0.003281 0.001,-6.86e-4 0.002,-0.001007 0.49917,0.866501 z m -248.45372,80.71753 c -0.10687,0.99427 -0.10759,0.994194 -0.1089,0.994049 -10e-4,-1.3e-4 -0.003,-3.36e-4 -0.006,-6.03e-4 -0.005,-5.42e-4 -0.0123,-0.0013 -0.0221,-0.0024 -0.0195,-0.0021 -0.0485,-0.0053 -0.0869,-0.0095 -0.0768,-0.0084 -0.19121,-0.02097 -0.34201,-0.03772 -0.30161,-0.03351 -0.74889,-0.08376 -1.33274,-0.150871 -1.16769,-0.134209 -2.88167,-0.335823 -5.06903,-0.605675 C 234.22533,82.1942 227.95676,81.381502 220.37762,80.289125 205.22133,78.104652 184.81586,74.800552 163.83105,70.322815 142.85358,65.846642 121.26233,60.19043 103.74898,53.293961 94.992767,49.845917 87.225655,46.076202 81.054962,41.970566 74.897095,37.873459 70.247108,33.388107 67.839981,28.476105 l 1.795944,-0.880112 c 2.184151,4.457001 6.503548,8.701843 12.526917,12.709457 6.010536,3.999085 13.636505,7.708603 22.318938,11.127594 17.36395,6.837647 38.83231,12.466835 59.76663,16.9338 20.92699,4.465401 41.28549,7.762192 56.41487,9.94278 7.56386,1.090179 13.81882,1.901092 18.18193,2.439361 2.18152,0.269135 3.88999,0.470093 5.05254,0.603714 0.58125,0.06681 1.02603,0.116783 1.32521,0.150017 0.14958,0.01662 0.26277,0.02906 0.33841,0.03732 0.0378,0.0041 0.0663,0.0072 0.0852,0.0093 0.009,0.001 0.0165,0.0018 0.0212,0.0023 0.002,2.52e-4 0.004,4.35e-4 0.005,5.65e-4 10e-4,1.14e-4 0.002,1.68e-4 -0.10529,0.994446 z M 68.737953,28.036041 c 0.952332,0.305084 0.952126,0.305725 0.951721,0.306977 -3.89e-4,0.0012 -9.76e-4,0.0031 -0.0018,0.0055 -0.0015,0.0048 -0.0039,0.01206 -0.0069,0.02164 -0.0061,0.01916 -0.01533,0.04779 -0.02752,0.08571 -0.02436,0.07585 -0.06071,0.188904 -0.108719,0.337998 -0.09604,0.298187 -0.238754,0.740493 -0.425644,1.31752 -0.373771,1.154022 -0.924232,2.846862 -1.631256,5.003006 -1.414047,4.31224 -3.454437,10.477874 -5.960239,17.892791 -5.01133,14.82901 -11.885407,34.658432 -19.334637,54.654157 -7.447387,19.99077 -15.477323,40.16865 -22.800548,55.68566 -3.660038,7.75517 -7.156927,14.375 -10.328738,19.2326 -1.585219,2.42775 -3.106016,4.44149 -4.5428,5.94274 -1.417855,1.48149 -2.8413,2.55768 -4.246442,2.95871 l -0.548884,-1.92322 c 0.890494,-0.25414 2.012747,-1.02063 3.350425,-2.41834 1.318748,-1.37792 2.76332,-3.27989 4.31308,-5.65335 3.098149,-4.74479 6.549662,-11.26942 10.19467,-18.99275 7.286871,-15.43999 15.293605,-35.55537 22.735069,-55.53026 7.439625,-19.969947 14.306579,-39.778601 19.314072,-54.596251 2.503604,-7.408417 4.542076,-13.568268 5.954536,-17.875672 0.706223,-2.153671 1.255928,-3.844207 1.629005,-4.996078 0.186539,-0.575943 0.328919,-1.017212 0.424622,-1.314377 0.04786,-0.14859 0.08404,-0.261139 0.108246,-0.336502 0.0121,-0.03767 0.0212,-0.06604 0.02727,-0.08498 0.003,-0.0095 0.0053,-0.01656 0.0068,-0.02129 7.56e-4,-0.0023 0.0013,-0.0041 0.0017,-0.0053 3.74e-4,-0.0012 5.49e-4,-0.0017 0.952873,0.30336 z"
             style="fill:#6c63ff;fill-opacity:0.8;fill-rule:nonzero;stroke:none"
             id="path1850" />
        </g>
      </g>
      <g
         id="g1860"
         transform="matrix(0.35277777,0,0,-0.35277777,-257.86138,1035.0561)">
        <g
           transform="translate(374.09225,1313.7109)"
           id="g1858">
          <path
             d="m 360.21844,193.06824 0.31134,-0.95029 -0.55685,1.91968 z M 245.56769,84.047173 l -0.58789,-0.80893 0.78329,-0.569267 0.5942,0.764557 z M 0,192.01996 l -0.133268,0.99109 0.10057,-1.99056 z M 69.674179,29.18515 c 3.56881,9.506363 10.742363,19.21431 20.649887,28.936295 9.900214,9.714828 22.481634,19.396499 36.794964,28.858764 28.62715,18.924861 64.09729,36.916811 98.69059,52.500211 34.58754,15.58083 68.26979,28.74114 93.30732,38.00682 12.51804,4.63257 22.87342,8.29096 30.09839,10.79091 3.61246,1.24997 6.4422,2.21028 8.36829,2.85794 0.96304,0.32382 1.70016,0.56948 2.19626,0.73407 0.24801,0.0823 0.43579,0.14435 0.5614,0.18576 0.0628,0.0207 0.11007,0.0363 0.14157,0.0466 0.0158,0.005 0.0276,0.009 0.0354,0.0116 0.004,10e-4 0.007,0.002 0.009,0.003 0.002,6.1e-4 0.003,9.2e-4 -0.30857,0.95121 -0.31137,0.95028 -0.31247,0.94993 -0.31457,0.94923 -0.002,-6.6e-4 -0.005,-0.002 -0.009,-0.003 -0.008,-0.003 -0.0202,-0.007 -0.0362,-0.0119 -0.0321,-0.0106 -0.0799,-0.0263 -0.14334,-0.0472 -0.1268,-0.0418 -0.3158,-0.10424 -0.56507,-0.18695 -0.4985,-0.16542 -1.23816,-0.41191 -2.20379,-0.73662 -1.93128,-0.64938 -4.76657,-1.61158 -8.38486,-2.86357 -7.23651,-2.50395 -17.60541,-6.16714 -30.13855,-10.80529 C 293.35854,170.08727 259.631,156.90955 224.98867,141.30405 190.35156,125.70103 154.7717,107.65837 126.01609,88.648605 111.63805,79.143562 98.944901,69.382919 88.923279,59.548965 78.908966,49.722183 71.513412,39.774887 67.801773,29.888077 Z M 359.97293,194.03763 c -9.55942,-2.42084 -21.53595,-10.55712 -34.03473,-21.22345 -12.53808,-10.69986 -25.73575,-24.06526 -37.75143,-37.11711 -12.01859,-13.055 -22.86936,-25.81248 -30.71469,-35.30503 -3.92301,-4.7467 -7.09539,-8.678058 -9.28746,-11.423351 -1.09607,-1.372673 -1.9471,-2.448875 -2.5244,-3.182282 -0.28867,-0.366706 -0.50888,-0.64772 -0.65711,-0.837249 -0.0741,-0.09476 -0.1302,-0.166657 -0.16784,-0.214951 -0.0188,-0.02415 -0.0331,-0.0424 -0.0426,-0.05466 -0.005,-0.0061 -0.008,-0.01077 -0.0108,-0.01389 -0.001,-0.0016 -0.002,-0.0028 -0.003,-0.0036 -6.5e-4,-8.32e-4 -0.001,-0.0013 0.78858,-0.614929 0.7896,-0.61364 0.78982,-0.613335 0.79036,-0.612648 5.8e-4,7.4e-4 0.001,0.0018 0.003,0.0033 0.002,0.0029 0.006,0.0074 0.0103,0.01331 0.009,0.01187 0.0232,0.02973 0.0417,0.05348 0.037,0.04751 0.0925,0.118599 0.16598,0.212547 0.14694,0.187904 0.36586,0.467247 0.65317,0.832237 0.57462,0.729988 1.42276,1.802544 2.51575,3.171379 2.18603,2.737702 5.35127,6.660248 9.2662,11.397187 7.83063,9.47476 18.65723,22.20357 30.64447,35.22454 11.99014,13.02409 25.12671,26.32431 37.57831,36.95038 12.49088,10.65959 24.15939,18.50958 33.22745,20.806 l -0.491,1.93878 z M 245.56769,84.047173 c 0.5879,0.808937 0.58717,0.809471 0.58581,0.810455 -0.001,9.38e-4 -0.003,0.0024 -0.006,0.0042 -0.005,0.0037 -0.0128,0.0093 -0.0228,0.01656 -0.0202,0.01462 -0.0502,0.03639 -0.09,0.06518 -0.0796,0.05759 -0.19826,0.14328 -0.35503,0.256127 -0.3135,0.225685 -0.77943,0.559989 -1.39029,0.995315 -1.22171,0.870644 -3.02313,2.145371 -5.34433,3.763397 -4.64231,3.236 -11.36401,7.845398 -19.6853,13.341743 -16.6414,10.99188 -39.68617,25.53492 -65.29512,39.73552 -25.60507,14.19845 -53.7955,28.06689 -80.725073,37.69863 -26.902843,9.6222 -52.66731,15.06093 -73.372945,12.27671 l 0.266536,-1.98217 c 20.222309,2.71924 45.617781,-2.58689 72.432864,-12.1777 26.78836,-9.58125 54.873868,-23.39395 80.428728,-37.56456 25.55099,-14.16846 48.55015,-28.68241 65.16272,-39.65526 8.30569,-5.486023 15.01349,-10.08593 19.6439,-13.313637 2.31517,-1.61383 4.11093,-2.884552 5.32732,-3.751404 0.60818,-0.433426 1.07153,-0.765876 1.38252,-0.989753 0.1555,-0.111939 0.27292,-0.19674 0.3513,-0.253441 0.0392,-0.02835 0.0686,-0.04968 0.0882,-0.06387 0.01,-0.0071 0.0171,-0.01241 0.0219,-0.01591 0.002,-0.0018 0.004,-0.003 0.005,-0.0039 0.001,-8.24e-4 0.002,-0.0012 0.58954,0.807732 z M 0,192.01996 c -0.032698,-0.99947 -0.031556,-0.9995 -0.029044,-0.99959 0.002668,-8e-5 0.00655,-2.1e-4 0.011877,-4e-4 0.010653,-3.5e-4 0.02677,-9e-4 0.048317,-0.002 0.043094,-0.001 0.107906,-0.004 0.194155,-0.007 0.172499,-0.006 0.430749,-0.0161 0.772509,-0.0299 0.68352,-0.0276 1.701075,-0.0714 3.03474,-0.13605 2.667339,-0.1293 6.599068,-0.34202 11.6518,-0.67561 10.105571,-0.66716 24.694609,-1.8177 42.62012,-3.75085 35.852775,-3.86652 85.043806,-10.8629 138.400066,-23.38135 106.77498,-25.0511 229.97347,-72.159578 296.5187,-160.310052 l 1.59622,1.205001 C 427.82413,92.678856 304.01193,139.91553 197.16138,164.98482 143.70488,177.52678 94.429436,184.53476 58.518917,188.4075 c -17.956135,1.93646 -32.572945,3.08928 -42.70281,3.75806 -5.064986,0.33438 -9.008373,0.54777 -11.686719,0.67759 -1.339178,0.0649 -2.362108,0.10895 -3.050863,0.13677 -0.344378,0.0139 -0.605213,0.0238 -0.780264,0.0302 -0.087525,0.003 -0.153605,0.006 -0.197959,0.007 -0.022177,7.6e-4 -0.038923,0.001 -0.050202,0.002 -0.005639,2e-4 -0.00999,3.4e-4 -0.012814,4.3e-4 C 0.034306,193.01966 0.032698,193.0197 0,192.02024 Z"
             style="fill:#6c63ff;fill-opacity:0.8;fill-rule:nonzero;stroke:none"
             id="path1856" />
        </g>
      </g>
      <g
         transform="matrix(0.35277777,0,0,-0.35277777,-128.57401,506.54873)"
         id="g1864">
        <path
           d="m 7.608403,0 c 4.202003,0 7.608394,3.402656 7.608394,7.600037 0,4.197382 -3.406391,7.600036 -7.608394,7.600036 C 3.406401,15.200073 0,11.797419 0,7.600037 0,3.402656 3.406401,0 7.608403,0 Z"
           style="fill:#6c63ff;fill-opacity:1;fill-rule:nonzero;stroke:none"
           id="path1862" />
      </g>
      <g
         transform="matrix(0.35277777,0,0,-0.35277777,-104.32479,563.86922)"
         id="g1868">
        <path
           d="m 7.608389,-9.2e-5 c 4.202005,0 7.608408,3.402629 7.608408,7.600002 0,4.197373 -3.406403,7.600041 -7.608408,7.600041 C 3.406384,15.199951 0,11.797283 0,7.59991 0,3.402537 3.406384,-9.2e-5 7.608389,-9.2e-5 Z"
           style="fill:#6c63ff;fill-opacity:1;fill-rule:nonzero;stroke:none"
           id="path1866" />
      </g>
      <g
         transform="matrix(0.35277777,0,0,-0.35277777,-1.4969478,506.17894)"
         id="g1872">
        <path
           d="m 7.608368,1.4e-5 c 4.201994,0 7.608369,3.402652 7.608369,7.60003 0,4.197377 -3.406375,7.600029 -7.608369,7.600029 C 3.406375,15.200073 0,11.797421 0,7.600044 0,3.402666 3.406375,1.4e-5 7.608368,1.4e-5 Z"
           style="fill:#6c63ff;fill-opacity:1;fill-rule:nonzero;stroke:none"
           id="path1870" />
      </g>
      <g
         transform="matrix(0.35277777,0,0,-0.35277777,45.705727,573.11447)"
         id="g1876">
        <path
           d="m 7.608379,-9.2e-5 c 4.201999,0 7.608418,3.402668 7.608418,7.600041 0,4.197373 -3.406419,7.600002 -7.608418,7.600002 C 3.406379,15.199951 0,11.797322 0,7.599949 0,3.402576 3.406379,-9.2e-5 7.608379,-9.2e-5 Z"
           style="fill:#6c63ff;fill-opacity:1;fill-rule:nonzero;stroke:none"
           id="path1874" />
      </g>
      <g
         transform="matrix(0.35277777,0,0,-0.35277777,-41.943187,544.63913)"
         id="g1880">
        <path
           d="m 7.608379,-6.1e-5 c 4.201999,0 7.608418,3.402626 7.608418,7.599997 0,4.197369 -3.406419,7.600015 -7.608418,7.600015 C 3.406379,15.199951 0,11.797305 0,7.599936 0,3.402565 3.406379,-6.1e-5 7.608379,-6.1e-5 Z"
           style="fill:#6c63ff;fill-opacity:1;fill-rule:nonzero;stroke:none"
           id="path1878" />
      </g>
    </g>
  </g>
  <metadata
     id="metadata10122">
    <rdf:RDF>
      <cc:Work
         rdf:about="">
        <dc:title>globe</dc:title>
      </cc:Work>
    </rdf:RDF>
  </metadata>
</svg>
