<?xml version="1.0" encoding="UTF-8" standalone="no"?>
<!-- Created with Inkscape (http://www.inkscape.org/) -->

<svg
   width="492.625"
   height="340.47101"
   viewBox="0 0 130.34036 90.082957"
   version="1.1"
   id="svg1404"
   inkscape:version="1.1 (c68e22c387, 2021-05-23)"
   sodipodi:docname="logo.svg"
   xmlns:inkscape="http://www.inkscape.org/namespaces/inkscape"
   xmlns:sodipodi="http://sodipodi.sourceforge.net/DTD/sodipodi-0.dtd"
   xmlns="http://www.w3.org/2000/svg"
   xmlns:svg="http://www.w3.org/2000/svg">
  <sodipodi:namedview
     id="namedview1406"
     pagecolor="#ffffff"
     bordercolor="#666666"
     borderopacity="1.0"
     inkscape:pageshadow="2"
     inkscape:pageopacity="0.0"
     inkscape:pagecheckerboard="0"
     inkscape:document-units="px"
     showgrid="false"
     units="px"
     width="492.625px"
     inkscape:zoom="0.66635802"
     inkscape:cx="261.87124"
     inkscape:cy="174.83094"
     inkscape:window-width="1920"
     inkscape:window-height="1017"
     inkscape:window-x="-8"
     inkscape:window-y="-8"
     inkscape:window-maximized="1"
     inkscape:current-layer="layer1" />
  <defs
     id="defs1401" />
  <g
     inkscape:label="Layer 1"
     inkscape:groupmode="layer"
     id="layer1">
    <path
       style="fill:#000000;stroke-width:0.264583"
       d="M 32.876178,89.823488 C 23.535078,88.748978 14.052829,83.458918 8.2380054,76.078088 2.6638574,69.002748 0.01072041,61.425088 6.3414223e-5,52.549568 -0.01226659,42.284518 3.7969534,33.124928 11.058365,25.958948 c 5.640143,-5.56602 12.828972,-9.21469 20.632586,-10.47199 2.780495,-0.44799 8.486298,-0.45142 10.97481,-0.007 6.043466,1.08027 12.371694,4.25001 19.050002,9.54193 3.02461,2.39673 17.26257,16.58692 17.92393,17.8638 0.52926,1.02185 0.5224,3.23678 -0.0132,4.27259 -0.69487,1.34373 -2.13453,2.4232 -3.50607,2.62887 -2.53647,0.38037 -2.78607,0.20114 -10.1713,-7.3041 -7.01286,-7.12682 -10.22754,-10.05348 -13.530743,-12.31848 -6.97819,-4.78494 -12.896117,-6.23667 -19.939571,-4.89141 -8.794027,1.67962 -15.917208,7.06572 -19.974733,15.10363 -1.955176,3.87318 -2.7563746,7.47877 -2.7342276,12.30468 0.03099,6.75272 1.9067876,12.08404 6.0923006,17.31528 3.79147,4.73875 8.643242,7.83211 15.029684,9.58251 1.77727,0.48712 2.869893,0.58554 6.814224,0.6138 l 4.697558,0.0336 2.3139,2.12827 c 2.78339,2.56009 4.445794,4.00329 5.474565,4.7527 l 0.765924,0.55794 -1.698712,0.55073 c -5.247381,1.70123 -10.814875,2.24726 -16.383084,1.60674 z m 47.757295,0.005 c -6.36945,-0.66755 -12.93096,-3.18514 -19.24734,-7.38501 -4.314678,-2.8689 -6.858777,-5.04202 -12.370576,-10.56673 -5.442228,-5.45497 -17.899189,-18.75899 -18.445106,-19.69936 -0.176747,-0.30445 -0.325575,-1.27982 -0.330729,-2.16749 -0.0081,-1.38878 0.10364,-1.76997 0.800698,-2.73223 1.416214,-1.95502 3.802459,-2.61502 5.936799,-1.64202 1.063514,0.48483 2.571245,2.02316 12.481753,12.73507 9.827391,10.62208 15.297831,15.28414 21.696071,18.49 4.83427,2.42223 9.16935,3.46829 14.37322,3.46829 14.919507,0 28.710107,-9.97035 33.299517,-24.07495 1.43453,-4.40872 1.72731,-6.31209 1.72972,-11.2448 0.002,-4.71248 -0.3723,-7.19444 -1.68673,-11.17588 -4.23983,-12.84254 -16.09821,-22.41146 -29.608847,-23.8923702 -7.09975,-0.778202 -13.77374,0.4632702 -20.13234,3.7449402 l -3.03722,1.56751 -0.79756,-0.60022 c -1.74401,-1.31248 -5.64247,-3.80332 -6.696258,-4.27842 -0.613865,-0.27677 -1.116118,-0.5787702 -1.116118,-0.6711302 0,-0.285252 2.390296,-1.963192 5.066926,-3.556872 2.49505,-1.48558 7.63761,-3.72983 10.01432,-4.37034 11.42493,-3.07894 22.48287,-2.14745001 32.411457,2.73026 12.06683,5.9281722 20.92317,16.7816722 24.04401,29.4660822 1.17834,4.78927 1.33564,6.11998 1.32022,11.16874 -0.0158,5.15878 -0.31298,7.4279 -1.55953,11.90625 -2.03144,7.29809 -5.7493,13.80241 -10.93996,19.13924 -9.92101,10.20036 -23.285687,15.10043 -37.206397,13.64145 z"
       id="path1495" />
  </g>
</svg>
