<?xml version="1.0" encoding="UTF-8" standalone="no"?>
<!-- Created with Inkscape (http://www.inkscape.org/) -->

<svg
   width="1122.5197"
   height="793.70081"
   viewBox="0 0 296.99998 210.00001"
   version="1.1"
   id="svg5"
   sodipodi:docname="BG.svg"
   inkscape:version="1.1 (c68e22c387, 2021-05-23)"
   xmlns:inkscape="http://www.inkscape.org/namespaces/inkscape"
   xmlns:sodipodi="http://sodipodi.sourceforge.net/DTD/sodipodi-0.dtd"
   xmlns:xlink="http://www.w3.org/1999/xlink"
   xmlns="http://www.w3.org/2000/svg"
   xmlns:svg="http://www.w3.org/2000/svg">
  <sodipodi:namedview
     id="namedview7"
     pagecolor="#ffffff"
     bordercolor="#666666"
     borderopacity="1.0"
     inkscape:pageshadow="2"
     inkscape:pageopacity="0.0"
     inkscape:pagecheckerboard="0"
     inkscape:document-units="px"
     showgrid="false"
     units="px"
     inkscape:zoom="0.15422938"
     inkscape:cx="2220.7182"
     inkscape:cy="742.40069"
     inkscape:window-width="1920"
     inkscape:window-height="1017"
     inkscape:window-x="-8"
     inkscape:window-y="-8"
     inkscape:window-maximized="1"
     inkscape:current-layer="layer1" />
  <defs
     id="defs2">
    <linearGradient
       inkscape:collect="always"
       id="linearGradient874">
      <stop
         style="stop-color:#ccc8c2;stop-opacity:1"
         offset="0"
         id="stop870" />
      <stop
         style="stop-color:#ccc8c2;stop-opacity:1"
         offset="0.49741155"
         id="stop2193" />
      <stop
         style="stop-color:#030303;stop-opacity:1"
         offset="0.56859362"
         id="stop1262" />
      <stop
         style="stop-color:#000000;stop-opacity:1"
         offset="1"
         id="stop872" />
    </linearGradient>
    <linearGradient
       inkscape:collect="always"
       xlink:href="#linearGradient874"
       id="linearGradient876"
       x1="-5.2940559"
       y1="109.78677"
       x2="301.49994"
       y2="109.78677"
       gradientUnits="userSpaceOnUse"
       gradientTransform="matrix(1.0115831,0,0,0.95978236,-5.0396319,0.58192179)" />
  </defs>
  <g
     inkscape:label="Layer 1"
     inkscape:groupmode="layer"
     id="layer1">
    <rect
       style="fill:url(#linearGradient876);fill-opacity:1;stroke:#4d4d4d;stroke-width:0.260705"
       id="rect846"
       width="310.07993"
       height="214.55374"
       x="-8.2529001"
       y="-0.56134683"
       ry="0" />
    <path
       id="path1058"
       style="fill:#45febb;fill-opacity:1;stroke:none;stroke-width:0.307167"
       d="m 145.14512,-0.11762325 c -3.54031,1.58349715 -7.09835,3.04968565 -10.56098,5.13561375 -1.4198,0.8556362 -3.8084,2.0347085 -4.40817,4.8250063 -0.69636,3.2403802 1.4399,5.7137462 2.80569,6.8092552 2.7668,2.219054 9.66103,3.804577 9.80936,10.897364 0.068,3.251924 -1.80155,5.531734 -3.17051,7.000246 -2.83138,3.036767 -8.35892,5.19037 -9.46555,11.546637 -0.99629,5.722385 2.52585,11.064918 4.36389,14.837804 3.82651,7.853614 8.23382,14.677143 12.42728,21.860201 2.46575,4.223375 5.20827,9.931483 8.24131,12.760521 v 0.412499 c -7.63811,-6.420574 -14.78448,-14.839231 -23.12149,-18.2791 -3.1498,-1.299524 -8.65185,-1.932584 -8.11479,6.73837 0.42832,6.916394 5.32602,10.554918 8.11479,14.023627 1.38018,1.717049 3.16599,4.075689 3.22599,7.408799 0.13202,7.34049 -5.5363,9.19365 -8.49128,10.56362 -1.19589,0.55437 -3.59531,1.36627 -3.59531,4.27568 0,1.83243 1.04003,3.16774 1.7639,4.16146 1.9445,2.66869 4.06847,4.99506 6.181,7.20254 6.1329,6.40821 12.43134,12.29105 18.7719,17.99901 3.04311,2.73921 6.29524,6.72183 9.61488,8.14128 v 0.41251 c -3.11085,-1.32715 -6.14366,-3.96615 -9.15702,-5.89712 -6.92707,-4.43852 -13.92235,-8.87101 -21.06118,-12.08417 -2.48292,-1.11737 -4.98553,-2.22411 -7.55454,-2.38199 -1.03673,-0.064 -2.62852,0.49696 -2.08849,3.03668 0.62914,2.95846 3.12942,4.31295 4.60667,5.37386 4.34867,3.12207 8.92902,5.12107 13.2777,8.24316 1.80919,1.29912 5.11299,3.16643 5.22997,7.41867 0.0906,3.28651 -1.79746,5.53676 -3.16963,7.00074 -2.96254,3.16081 -9.59286,5.97157 -9.60818,13.60716 -0.0154,7.71475 5.39373,11.07307 8.00212,15.67808 2.12281,3.74773 2.51748,8.04866 0.22891,11.89367 -0.67626,1.1359 -1.46979,2.02278 -2.28567,2.79597 -0.10237,0.097 -0.20939,0.183 -0.31299,0.27714 h 37.0569 c -0.19179,-0.1858 -0.38564,-0.36305 -0.57365,-0.56364 -0.71928,-0.76702 -1.42789,-1.59493 -2.0572,-2.5907 -2.08093,-3.2927 -1.60129,-6.88414 0.68454,-9.38467 2.95337,-3.2309 6.77645,-3.79347 10.07183,-5.27639 1.19615,-0.53869 3.18023,-1.08254 3.72049,-3.42607 0.85228,-3.69619 -2.60287,-6.063 -3.9494,-7.236 -4.86285,-4.23534 -10.5132,-7.21094 -15.79589,-9.17403 7.36958,-12.69855 15.45478,-25.57703 23.57936,-36.68176 v -0.4125 c -6.86205,3.37927 -13.04718,9.89714 -20.37439,9.89221 -3.31415,-0.003 -7.45073,-3.419 -5.84252,-10.71624 1.57249,-7.13524 6.50366,-11.26372 9.73424,-15.61898 1.50338,-2.02659 3.58237,-4.63058 3.83897,-8.286 0.66895,-9.53154 -6.93334,-5.80219 -9.5621,-5.12873 -0.87287,0.22381 -1.78297,-0.001 -2.41891,-1.21633 -1.61028,-3.0755 0.81185,-7.26111 1.96105,-9.31529 3.56599,-6.375237 8.06208,-11.098337 12.36199,-15.663792 v -0.412011 c -2.14756,0.499124 -4.25503,1.473119 -6.40992,1.943394 -2.14318,0.467385 -11.1687,1.138385 -7.69359,-6.887523 0.37062,-0.855645 0.81988,-1.595558 1.28368,-2.283041 4.25892,-6.318354 9.98253,-8.514056 14.65124,-13.634261 1.61004,-1.76567 3.61227,-4.534406 2.74489,-8.401673 -1.37861,-6.146482 -6.76596,-6.523023 -9.84158,-7.076541 -9.77284,-1.759079 -19.37605,1.577108 -29.07357,2.954958 9.99031,-7.97275 20.66856,-12.222906 30.21819,-22.261381 2.3829,-2.504668 9.25915,-9.414884 6.4372,-15.933545 -1.02032,-2.3571179 -2.85656,-2.6038837 -4.37687,-2.6084169 -3.15529,-0.00941 -6.24259,1.1880481 -9.38595,1.237512 -1.40422,0.022284 -3.45446,0.6499109 -4.40815,-1.7381257 -0.76957,-1.9267524 0.0269,-4.9746101 0.88529,-7.79522665 z M 169.93037,34.927415 c -0.31211,-0.01504 -0.64793,0.12459 -0.99396,0.464678 -2.05576,2.019991 -0.34044,7.99923 1.79384,5.976375 1.87496,-1.777037 0.88537,-6.359766 -0.79988,-6.441053 z m -38.13403,30.595616 c -0.20382,0.01863 -0.4191,0.0989 -0.64297,0.252029 -2.4108,1.649445 -0.97436,8.332813 1.36597,6.689145 2.17401,-1.526574 1.24721,-7.121301 -0.723,-6.941174 z m 37.15258,70.875199 c -0.28373,-0.0516 -0.58814,0.0568 -0.88977,0.38446 -1.58073,1.71707 -0.12151,6.16024 1.52559,4.50996 1.43685,-1.43932 0.59368,-4.67061 -0.63582,-4.89442 z" />
  </g>
</svg>
