<?xml version="1.0" encoding="UTF-8" standalone="no"?>
<!-- Created with Inkscape (http://www.inkscape.org/) -->

<svg
   width="300.59799"
   height="593.26099"
   viewBox="0 0 79.533217 156.96697"
   version="1.1"
   id="svg5"
   inkscape:version="1.1 (c68e22c387, 2021-05-23)"
   sodipodi:docname="drawing.svg"
   xmlns:inkscape="http://www.inkscape.org/namespaces/inkscape"
   xmlns:sodipodi="http://sodipodi.sourceforge.net/DTD/sodipodi-0.dtd"
   xmlns="http://www.w3.org/2000/svg"
   xmlns:svg="http://www.w3.org/2000/svg">
  <sodipodi:namedview
     id="namedview7"
     pagecolor="#ffffff"
     bordercolor="#666666"
     borderopacity="1.0"
     inkscape:pageshadow="2"
     inkscape:pageopacity="0.0"
     inkscape:pagecheckerboard="0"
     inkscape:document-units="px"
     showgrid="false"
     units="px"
     width="300.598px"
     inkscape:zoom="0.46256031"
     inkscape:cx="506.96092"
     inkscape:cy="623.70246"
     inkscape:window-width="1920"
     inkscape:window-height="1017"
     inkscape:window-x="-8"
     inkscape:window-y="-8"
     inkscape:window-maximized="1"
     inkscape:current-layer="layer1" />
  <defs
     id="defs2" />
  <g
     inkscape:label="Layer 1"
     inkscape:groupmode="layer"
     id="layer1">
    <path
       style="fill:#ffff00;stroke:none;stroke-width:0.264583"
       d="m 41.168656,78.914911 v 0.26458 c -8.827822,-4.12168 -17.087322,-9.52579 -26.722912,-11.73401 -3.6404,-0.83423 -9.9991307,-1.24063 -9.3784202,4.32568 0.49503,4.43997 6.1552602,6.77571 9.3784202,9.00244 1.59517,1.10226 3.65919,2.6162 3.72851,4.75589 0.15266,4.71223 -6.39869,5.9018 -9.8139302,6.78127 -1.38218,0.35587 -4.1550105,0.87709 -4.1550105,2.74479 0,1.17634 1.2017305,2.03359 2.0383505,2.6715 2.24737,1.71317 4.7021702,3.206479 7.1437502,4.623589 7.08818,4.11374 14.36766,7.8904 21.69583,11.55462 3.517102,1.75842 7.275782,4.31509 11.112502,5.22631 v 0.26459 c -3.59542,-0.85196 -7.10062,-2.54609 -10.583342,-3.78566 -8.00602,-2.8493 -16.09089,-5.69463 -24.34166,-7.75732 -2.8696702,-0.71729 -5.7621002,-1.42769 -8.7312507,-1.52903 -1.19822,-0.041 -3.03787003,0.31883 -2.41372003,1.94919 0.72713,1.89918 3.61678003,2.76886 5.32414053,3.4499 5.0260202,2.00422 10.3198002,3.28745 15.3458302,5.29167 2.091,0.83396 5.90973,2.03279 6.04493,4.7625 0.10478,2.10978 -2.07777,3.55414 -3.66368,4.49394 -3.42397,2.02909 -11.08684,3.83355 -11.10456,8.73522 -0.0177,4.95247 6.23384,7.1083 9.24851,10.06449 2.45348,2.40585 2.90962,5.16678 0.26458,7.63508 -0.78158,0.72919 -1.69889,1.29858 -2.64186,1.79493 -1.6055,0.84508 -3.3491,1.51289 -5.02709,2.20134 v 0.26458 h 51.593752 v -0.26458 c -1.56792,-0.83582 -3.22739,-1.47558 -4.7625,-2.38522 -0.83132,-0.49239 -1.64994,-1.02394 -2.37728,-1.66317 -2.40506,-2.11376 -1.85102,-4.41907 0.79084,-6.0243 3.41339,-2.07407 7.83193,-2.43549 11.64061,-3.38746 1.38245,-0.34581 3.67585,-0.6948 4.30027,-2.19922 0.98504,-2.37278 -3.00858,-3.89228 -4.56486,-4.64529 -5.62027,-2.71886 -12.15072,-4.62888 -18.25625,-5.88909 8.51747,-8.15182 17.86203,-16.41925 27.25209,-23.54792 v -0.26458 c -7.93089,2.16932 -15.0794,6.35317 -23.54792,6.35 -3.83037,-0.002 -8.61113,-2.19472 -6.75243,-6.87917 1.81742,-4.58047 7.51655,-7.230529 11.25035,-10.026389 1.73752,-1.30095 4.14073,-2.97285 4.43733,-5.31944 0.77311,-6.11876 -8.0137,-3.72454 -11.05192,-3.29221 -1.00885,0.14367 -2.06057,-0.001 -2.79558,-0.78079 -1.86108,-1.97432 0.93847,-4.66143 2.26668,-5.98011 4.12142,-4.09258 9.31757,-7.12444 14.28724,-10.05523 v -0.26458 c -2.48206,0.32041 -4.91781,0.94562 -7.40834,1.24751 -2.47702,0.30004 -12.90796,0.73078 -8.89158,-4.42145 0.42836,-0.54928 0.94747,-1.0242 1.48352,-1.46553 4.9223,-4.05606 11.53715,-5.4655 16.93306,-8.75241 1.86082,-1.13347 4.17513,-2.91094 3.17262,-5.39353 -1.59332,-3.94573 -7.82002,-4.1873 -11.3747,-4.54263 -11.29506,-1.12924 -22.39407,1.01229 -33.602082,1.8968 11.546412,-5.1181 23.887902,-7.84649 34.925002,-14.29068 2.75405,-1.607869 10.70186,-6.043879 7.44035,-10.228529 -1.17925,-1.51315 -3.302,-1.67163 -5.0591,-1.67454 -3.64675,-0.006 -7.21466,0.76279 -10.84765,0.79454 -1.62296,0.0143 -3.9923,0.41725 -5.09456,-1.11575 -1.47584,-2.052371 2.02221,-6.092029 2.5834,-8.145461 1.46632,-5.3655909 -2.30267,-9.9629909 -6.74953,-12.4682779 -5.85099,-3.29647 -15.567282,-1.64517898 -21.695832,0.188834 -2.52148,0.754538 -5.86978,2.094309 -6.70745,4.871111 -0.83688,2.774156 1.57877,3.5051999 3.79704,3.8525979 4.47754,0.701146 9.03022,-0.09313 13.49374,0.492919 1.1557,0.151871 4.972322,-0.09472 4.972322,1.751277 0,2.214562 -4.950622,3.296444 -6.559822,3.723481 -5.02946,1.334558 -10.14068,2.373048 -15.08124,4.026165 -1.64095,0.549274 -4.40108,1.306244 -5.09429,3.097474 -0.80486,2.08016 1.6637,3.66792 3.2422,4.37118 3.19776,1.42452 11.16621,2.44211 11.33766,6.995319 0.0786,2.08757 -2.08253,3.55124 -3.66474,4.49395 -3.27237,1.94945 -9.66073,3.3319 -10.93973,7.4123 -1.15146,3.67348 2.91915,7.10301 5.04349,9.52501 4.42251,5.04162 9.51627,9.42206 14.3629,14.03322 2.84983,2.71119 6.019542,6.37567 9.525002,8.19177 m 15.89062,-38.62176 c -2.37596,1.29673 -0.39344,5.1353 2.07327,3.83673 2.56831,-1.35202 0.4863,-5.23399 -2.07327,-3.83673 m -43.667902,19.50455 c -2.78632,1.05886 -1.12633,5.34908 1.57851,4.29393 2.77257,-1.08136 1.18136,-5.34247 -1.57851,-4.29393 m 42.654282,45.583209 c -1.82695,1.10226 -0.14076,3.95447 1.76292,2.89507 2.0439,-1.13718 0.0963,-4.0169 -1.76292,-2.89507 m -9.05616,14.54441 -0.79375,-0.26458 z"
       id="path1058" />
  </g>
</svg>
